<?xml version="1.0" encoding="UTF-8" standalone="no"?>
<!-- Generator: Adobe Illustrator 17.0.0, SVG Export Plug-In . SVG Version: 6.00 Build 0)  -->

<svg
   xmlns:dc="http://purl.org/dc/elements/1.1/"
   xmlns:cc="http://creativecommons.org/ns#"
   xmlns:rdf="http://www.w3.org/1999/02/22-rdf-syntax-ns#"
   xmlns:svg="http://www.w3.org/2000/svg"
   xmlns="http://www.w3.org/2000/svg"
   xmlns:sodipodi="http://sodipodi.sourceforge.net/DTD/sodipodi-0.dtd"
   xmlns:inkscape="http://www.inkscape.org/namespaces/inkscape"
   version="1.1"
   id="Layer_1"
   x="0px"
   y="0px"
   width="935"
   height="635"
   viewBox="0 0 935 634.99999"
   enable-background="new 0 0 960 464.415"
   xml:space="preserve"
   sodipodi:docname="CNLOGO.svg"
   inkscape:version="0.92.4 (f8dce91, 2019-08-02)"><metadata
   id="metadata31"><rdf:RDF><cc:Work
       rdf:about=""><dc:format>image/svg+xml</dc:format><dc:type
         rdf:resource="http://purl.org/dc/dcmitype/StillImage" /><dc:title></dc:title></cc:Work></rdf:RDF></metadata><defs
   id="defs29" /><sodipodi:namedview
   pagecolor="#ffffff"
   bordercolor="#666666"
   borderopacity="1"
   objecttolerance="10"
   gridtolerance="10"
   guidetolerance="10"
   inkscape:pageopacity="0"
   inkscape:pageshadow="2"
   inkscape:window-width="1600"
   inkscape:window-height="796"
   id="namedview27"
   showgrid="false"
   units="in"
   fit-margin-top="0"
   fit-margin-left="0"
   fit-margin-right="0"
   fit-margin-bottom="0"
   inkscape:zoom="0.37083333"
   inkscape:cx="-178.68414"
   inkscape:cy="330.22479"
   inkscape:window-x="0"
   inkscape:window-y="27"
   inkscape:window-maximized="1"
   inkscape:current-layer="Layer_1" />
<g
   id="g24"
   transform="translate(-11.448185,86.050855)">
	<path
   d="m 148.767,320.924 v 82.624 c 0,3.306 -2.898,5.133 -8.64,5.541 v 3.556 h 62.861 v -3.556 c -5.641,-0.407 -8.488,-2.235 -8.488,-5.541 v -82.624 c 0,-17.177 -3.659,-31.1 -10.924,-41.824 -7.318,-10.721 -17.175,-18.394 -29.677,-23.068 -12.5,-4.678 -26.983,-7.014 -43.497,-7.014 -16.566,0 -31.1,2.336 -43.6,7.014 -12.5,4.674 -22.36,12.347 -29.677,23.068 C 29.859,289.824 26.2,303.747 26.2,320.924 v 39.214 h 45.736 v -39.214 c 0,-11.384 3.251,-19.769 9.805,-25.155 6.557,-5.338 16.11,-8.032 28.61,-8.032 25.609,0 38.416,11.082 38.416,33.187 z"
   id="path2"
   inkscape:connector-curvature="0"
   style="fill:#dd6620" />
	<path
   d="m 71.391,123.168 35.492,6.383 c 0.001,0.001 -28.256,25.044 -35.492,-6.383 z"
   id="path4"
   inkscape:connector-curvature="0"
   style="clip-rule:evenodd;fill:#3c544a;fill-rule:evenodd" />
	<path
   d="m 163.228,123.168 -35.489,6.383 c 0,0.001 28.253,25.044 35.489,-6.383 z"
   id="path6"
   inkscape:connector-curvature="0"
   style="clip-rule:evenodd;fill:#3c544a;fill-rule:evenodd" />
	<path
   d="m 87.433,101.695 h 52.574 30.049 9.097 V 55.959 h -9.097 -13.882 -68.741 c -17.175,0 -31.101,3.656 -41.821,10.924 C 34.888,74.2 27.215,84.06 22.541,96.558 c -4.677,12.502 -7.013,26.985 -7.013,43.5 0,16.566 2.336,31.1 7.013,43.6 4.674,12.5 12.348,22.36 23.071,29.677 10.721,7.266 24.646,10.925 41.821,10.925 h 76.469 6.155 9.097 v -45.735 h -9.097 -32.86 -49.764 c -11.384,0 -19.769,-3.251 -25.155,-9.805 -5.337,-6.557 -8.029,-16.11 -8.029,-28.61 0,-25.612 11.08,-38.415 33.184,-38.415 z"
   id="path8"
   inkscape:connector-curvature="0"
   style="fill:#dd6620" />
	<path
   d="m 267.201,98.848 c 12.375,0 24.109,2.293 35.251,6.826 11.136,4.585 20.304,11.552 27.412,20.95 7.105,9.395 10.677,21.04 10.677,34.93 0,13.796 -3.572,25.44 -10.726,34.928 -7.195,9.487 -16.408,16.457 -27.686,20.993 -11.275,4.539 -22.92,6.785 -34.928,6.785 -11.916,0 -23.56,-2.293 -34.927,-6.828 -11.373,-4.582 -20.63,-11.598 -27.825,-21.043 -7.155,-9.441 -10.729,-21.039 -10.729,-34.835 0,-13.89 3.528,-25.535 10.637,-34.93 7.059,-9.398 16.223,-16.365 27.501,-20.95 11.278,-4.534 23.058,-6.826 35.343,-6.826 z m 0,29.427 c -7.062,0 -13.477,1.375 -19.206,4.075 -5.729,2.756 -10.221,6.651 -13.568,11.742 -3.303,5.038 -4.952,10.859 -4.952,17.419 0,10.129 3.623,18.195 10.865,24.245 7.241,6.055 16.224,9.078 26.86,9.078 7.06,0 13.426,-1.374 19.114,-4.077 5.685,-2.755 10.177,-6.652 13.524,-11.648 3.297,-5.041 4.949,-10.908 4.949,-17.598 0,-5.044 -0.961,-9.629 -2.887,-13.801 -1.923,-4.169 -4.585,-7.7 -7.929,-10.544 -3.346,-2.884 -7.383,-5.087 -12.055,-6.601 -4.722,-1.513 -9.627,-2.29 -14.715,-2.29 z m 108.091,86.176 v -105.659 -0.136 -8.067 h 75.268 c 12.967,0 23.739,2.751 32.269,8.203 8.523,5.454 14.805,12.79 18.839,22.004 4.03,9.213 6.049,19.481 6.049,30.758 0,11.185 -2.018,21.452 -6.049,30.758 -4.034,9.305 -10.316,16.685 -18.839,22.139 -8.529,5.457 -19.302,8.206 -32.269,8.206 h -75.268 v -8.073 z m 36.805,-87.143 v 68.625 h 19.711 c 7.383,0 13.478,-0.598 18.337,-1.79 4.909,-1.236 8.937,-3.205 12.237,-5.908 3.259,-2.755 5.685,-6.237 7.247,-10.547 1.556,-4.261 2.333,-9.626 2.333,-16.091 0,-12.378 -3.118,-21.221 -9.393,-26.45 -6.283,-5.223 -16.501,-7.839 -30.761,-7.839 z m 134.677,-26.719 h 36.81 v 8.116 105.746 0.158 8.048 h -36.81 v -8.048 -0.082 -0.076 -105.659 -0.087 -0.082 z m 340.444,55.464 h 10.479 46.775 v 15.689 22.311 0.084 0.084 14.257 c -2.334,1.089 -4.794,2.146 -7.375,3.175 -5.638,2.2 -11.921,4.311 -18.796,6.283 -6.924,1.972 -13.798,3.528 -20.63,4.628 -6.831,1.144 -13.611,1.695 -20.35,1.695 -14.488,0 -27.187,-2.246 -38.095,-6.785 -10.862,-4.536 -19.299,-11.46 -25.35,-20.806 -6.049,-9.352 -9.075,-21.045 -9.075,-35.115 0,-10.452 1.972,-19.712 5.957,-27.735 3.99,-8.018 9.305,-14.575 15.996,-19.665 6.652,-5.088 14.396,-8.939 23.153,-11.506 8.803,-2.521 17.921,-3.8 27.414,-3.8 11.642,0 23.098,1.375 34.376,4.169 2.341,0.549 5.546,1.375 9.721,2.475 l 3.393,0.893 9.577,3.303 -10.044,25.589 c -8.526,-2.605 -17.952,-6.397 -26.445,-8.152 -5.772,-1.238 -10.767,-1.831 -15.077,-1.831 -12.609,0 -22.74,2.931 -30.349,8.847 -7.61,5.913 -11.41,15.037 -11.41,27.412 0,12.606 3.895,22.047 11.734,28.33 7.836,6.277 18.15,9.393 30.94,9.393 9.857,0 18.701,-1.375 26.586,-4.169 v -18.104 h -11.552 -11.555 -0.152 -8.004 v -20.95 h 8.004 0.154 z"
   id="path10"
   inkscape:connector-curvature="0"
   style="fill:#3c544a" />
	<path
   d="m 730.54,151.116 v 65.892 c 0,2.632 -2.311,4.093 -6.891,4.419 v 2.833 h 50.128 v -2.833 c -4.501,-0.326 -6.769,-1.787 -6.769,-4.419 v -65.892 c 0,-13.701 -2.917,-24.799 -8.708,-33.349 -5.84,-8.551 -13.701,-14.67 -23.669,-18.397 -9.966,-3.729 -21.52,-5.593 -34.689,-5.593 -13.211,0 -24.802,1.863 -34.767,5.593 -9.969,3.727 -17.835,9.846 -23.672,18.397 -5.794,8.55 -8.711,19.649 -8.711,33.349 v 30.234 h 36.473 v -30.234 c 0,-9.075 2.594,-15.762 7.823,-20.059 5.226,-4.254 12.845,-6.402 22.816,-6.402 20.421,-0.001 30.636,8.833 30.636,26.461 z"
   id="path12"
   inkscape:connector-curvature="0"
   style="fill:#3c544a" />
	<polygon
   points="226.722,359.871 226.722,359.792 226.722,359.719 226.722,256.993 226.722,256.911 226.722,256.83 226.722,249.018 262.508,249.018 262.508,256.83 262.508,256.911 262.508,256.993 262.508,359.719 262.508,359.792 262.508,359.871 262.508,367.697 226.722,367.697 "
   id="polygon14"
   style="fill:#3c544a" />
	<path
   d="m 402.335,298.143 v 64.061 c 0,2.559 -2.244,3.979 -6.696,4.297 v 2.755 h 48.736 v -2.755 c -4.378,-0.318 -6.584,-1.738 -6.584,-4.297 v -64.061 c 0,-13.32 -2.836,-24.111 -8.466,-32.425 -5.677,-8.312 -13.32,-14.26 -23.012,-17.887 -9.691,-3.623 -20.923,-5.435 -33.727,-5.435 -12.842,0 -24.109,1.812 -33.8,5.435 -9.691,3.627 -17.34,9.575 -23.017,17.887 -5.631,8.314 -8.467,19.105 -8.467,32.425 v 25.652 3.743 h 35.46 v -8.988 -20.407 c 0,-8.824 2.526,-15.327 7.608,-19.505 5.079,-4.137 12.486,-6.223 22.18,-6.223 19.854,0 29.785,8.589 29.785,25.728 z"
   id="path16"
   inkscape:connector-curvature="0"
   style="fill:#3c544a" />
	<path
   d="m 489.171,361.245 8.152,-27.393 c 11.728,4.862 15.969,7.861 29.951,7.861 6.552,0 11.308,-1.187 14.352,-3.477 3.053,-2.295 4.59,-6.503 4.59,-12.565 v -51.328 -17.351 -0.133 -7.842 h 35.786 v 7.847 0.128 9.862 62.068 c 0,7.839 -1.26,14.309 -3.786,19.432 -2.548,5.166 -6.063,9.232 -10.653,12.301 -4.544,3.034 -10.026,5.24 -16.354,6.598 -6.367,1.355 -13.641,2.002 -21.844,2.002 -14.102,10e-4 -26.846,-4.177 -40.194,-8.01 z"
   id="path18"
   inkscape:connector-curvature="0"
   style="fill:#3c544a" />
	<path
   d="m 676.703,324.112 h 44.393 L 698.633,271.1 Z m 99.203,43.585 h -35.017 l -10.661,-24.02 h -62.036 l -10.223,24.02 h -31.168 c 16.84,-39.82 34.482,-79.144 52.001,-118.679 h 43.274 c 17.308,39.901 35.662,79.158 53.83,118.679 z"
   id="path20"
   inkscape:connector-curvature="0"
   style="fill:#3c544a" />
	<path
   d="m 820.701,357.171 8.298,-23.58 c 8.624,2.643 21.159,7.328 33.38,9.371 8.157,1.364 15.865,2.002 23.087,2.002 5.658,0 11.096,-0.802 16.355,-2.361 5.261,-1.556 7.888,-4.587 7.888,-9.137 0,-4.498 -5.345,-7.711 -16.039,-9.536 -10.696,-1.828 -21.355,-3.52 -31.956,-5.079 -10.561,-1.554 -19.806,-4.612 -27.632,-9.181 -7.812,-4.564 -11.72,-11.943 -11.72,-22.148 0,-6.149 2.053,-12.343 6.146,-18.543 4.061,-6.144 10.612,-11.318 19.614,-15.46 9.002,-4.145 20.187,-6.193 33.602,-6.193 6.057,0 11.81,0.334 17.201,0.932 5.389,0.597 9.941,1.257 13.595,1.961 10.216,1.986 18.774,4.208 28.816,6.91 l -11.799,25.049 -10.091,-4.134 -0.25,-0.106 -0.253,-0.103 -0.06,-0.024 c -1.79,-0.742 -4.014,-1.535 -6.676,-2.366 -8.198,-2.546 -16.4,-3.83 -24.693,-3.83 -20.274,0 -30.391,4.007 -30.391,11.987 0,4.099 4.813,6.954 14.485,8.559 9.661,1.602 20.322,3.246 31.953,4.987 11.584,1.733 21.33,5.019 29.144,9.805 7.826,4.792 11.767,12.481 11.767,23.041 0,11.232 -4.957,20.586 -14.798,28.028 -23.321,17.643 -86.043,10.565 -108.973,-0.851 z"
   id="path22"
   inkscape:connector-curvature="0"
   style="fill:#3c544a" />
</g>
</svg>