<?xml version="1.0" encoding="UTF-8" standalone="no"?>
<svg
   xmlns:dc="http://purl.org/dc/elements/1.1/"
   xmlns:cc="http://creativecommons.org/ns#"
   xmlns:rdf="http://www.w3.org/1999/02/22-rdf-syntax-ns#"
   xmlns:svg="http://www.w3.org/2000/svg"
   xmlns="http://www.w3.org/2000/svg"
   xmlns:sodipodi="http://sodipodi.sourceforge.net/DTD/sodipodi-0.dtd"
   xmlns:inkscape="http://www.inkscape.org/namespaces/inkscape"
   id="Layer_1"
   data-name="Layer 1"
   viewBox="0 0 70.258682 68.97934"
   version="1.1"
   sodipodi:docname="codingturtle.svg"
   width="70.258682"
   height="68.97934"
   inkscape:version="0.92.3 (2405546, 2018-03-11)">
  <metadata
     id="metadata41">
    <rdf:RDF>
      <cc:Work
         rdf:about="">
        <dc:format>image/svg+xml</dc:format>
        <dc:type
           rdf:resource="http://purl.org/dc/dcmitype/StillImage" />
        <dc:title>Icons8 RSL Colored Part 9</dc:title>
      </cc:Work>
    </rdf:RDF>
  </metadata>
  <defs
     id="defs39" />
  <sodipodi:namedview
     pagecolor="#ffffff"
     bordercolor="#666666"
     borderopacity="1"
     objecttolerance="10"
     gridtolerance="10"
     guidetolerance="10"
     inkscape:pageopacity="0"
     inkscape:pageshadow="2"
     inkscape:window-width="1366"
     inkscape:window-height="676"
     id="namedview37"
     showgrid="false"
     fit-margin-top="0"
     fit-margin-left="0"
     fit-margin-right="0"
     fit-margin-bottom="0"
     inkscape:zoom="5.22"
     inkscape:cx="-7.9155024"
     inkscape:cy="42.409814"
     inkscape:window-x="0"
     inkscape:window-y="27"
     inkscape:window-maximized="1"
     inkscape:current-layer="Layer_1" />
  <title
     id="title2">Icons8 RSL Colored Part 9</title>
  <g
     id="g853"
     transform="matrix(0.91670952,0,0,0.98081193,0.20898648,1.1668409)"
     style="stroke:#110e5f;stroke-opacity:1;opacity:0.97;stroke-width:2.10921696;stroke-miterlimit:4;stroke-dasharray:none">
    <path
       inkscape:connector-curvature="0"
       id="path20"
       style="fill:#110e5f;fill-opacity:1;stroke:#110e5f;stroke-opacity:1;stroke-width:2.10921696;stroke-miterlimit:4;stroke-dasharray:none"
       d="M 55.897874,18.079797 A 19.92,19.92 0 0 0 54.310082,16.710156 25.94,25.94 0 0 0 51.157669,14.64989 c 0,0 -0.0421,-0.04275 -0.06316,-0.06412 -0.02105,-0.02137 0,0 -0.05614,-0.05699 A 26,26 0 0 0 47.5642,12.939867 L 46.617069,9.1283918 A 11.58,11.58 0 0 0 43.581977,3.6960149 L 41.006511,1.0814642 A 3.65,3.65 0 0 0 35.85892,1.0426992 l -2.621675,2.5824835 a 11.57,11.57 0 0 0 -3.073605,5.315661 l -1.076947,4.0366543 a 26,26 0 0 0 -6.43315,3.529616 19.81,19.81 0 0 0 -1.586868,1.324519 16.87,16.87 0 0 0 -14.1700125,8.343455 L 0.29233725,37.411096 a 2.07,2.07 0 0 0 3.05575245,2.688881 l 4.7727207,-3.704759 a 28.57,28.57 0 0 1 6.4771726,-3.741422 v 0 a 41.52,41.52 0 0 0 7.186382,23.212523 l -1.401545,2.068398 a 4.73,4.73 0 0 0 6.512349,6.61118 l 1.513603,-0.98565 2.245638,2.279717 a 10.55,10.55 0 0 0 14.876892,0.14032 l 2.849646,-2.807047 1.294543,0.872443 a 4.73,4.73 0 0 0 6.611181,-6.512349 l -1.321325,-2.01112 a 41.52,41.52 0 0 0 7.147693,-22.355022 28.61,28.61 0 0 1 6.102912,3.701806 l 4.716383,3.776219 a 2.05,2.05 0 0 0 2.637913,-0.04378 l 0.113986,-0.112282 a 2,2 0 0 0 0.34411,-2.500638 L 69.59399,26.654314 A 16.87,16.87 0 0 0 55.897874,18.079797 Z M 32.055011,9.435933 a 9.57,9.57 0 0 1 2.585757,-4.3859274 l 2.635923,-2.5965187 a 1.64,1.64 0 0 1 2.319245,0.017466 l 2.575466,2.6145507 a 9.58,9.58 0 0 1 2.505054,4.45255 l 0.61593,2.7200054 a 26.42,26.42 0 0 0 -13.944495,-0.006 z M 6.7404696,34.708932 2.3373509,38.161909 8.7696324,27.23574 A 14.74,14.74 0 0 1 18.856921,20.176796 20.17,20.17 0 0 0 14.693494,30.299783 31,31 0 0 0 6.7756642,34.730411 Z M 16.535187,32.69667 A 18.1,18.1 0 0 1 23.82261,18.078668 24.3,24.3 0 0 1 49.182596,15.87956 L 43.20743,26.201042 a 3,3 0 0 0 -0.4805,-0.04605 l -9.007965,-0.110264 a 3,3 0 0 0 -0.594486,0.06624 l -2.051358,-3.664224 a 1.0007247,1.0007247 0 0 0 -1.746888,0.976822 l 2.107393,3.735357 a 3,3 0 0 0 -0.343129,0.492405 l -4.281852,8.007787 a 3,3 0 0 0 -0.158648,0.408938 l -9.899214,-0.07455 C 16.638938,34.882471 16.569306,33.800043 16.55624,32.71804 Z m 28.304141,14.369831 a 3,3 0 0 0 0.357377,-0.50644 l 4.302905,-7.986414 a 3,3 0 0 0 0.158647,-0.408939 l 9.969923,0.07508 a 39.44,39.44 0 0 1 -8.844028,19.435955 z m 2.91364,-10.365751 a 1,1 0 0 1 0.10962,0.467529 v 0 a 1,1 0 0 1 -0.116649,0.465826 l -4.309816,7.965148 a 1,1 0 0 1 -0.887852,0.523659 L 33.56827,46.055282 A 1,1 0 0 1 32.688405,45.518314 L 28.499039,37.48916 a 1,1 0 0 1 -0.10962,-0.467529 v 0 a 1,1 0 0 1 0.116648,-0.465825 l 4.309816,-7.965148 a 1,1 0 0 1 0.2066,-0.203511 1,1 0 0 1 0.709323,-0.291652 l 8.980002,0.06763 a 1,1 0 0 1 0.879864,0.536971 z m -16.804221,9.773227 a 3,3 0 0 0 0.272623,0.419258 L 25.253434,57.193557 A 39.44,39.44 0 0 1 16.95523,37.953786 l 9.644663,0.07263 a 3,3 0 0 0 0.15247,0.411282 z M 25.720682,62.755093 A 2.59,2.59 0 0 1 22.16275,59.143166 l 0.965377,-1.428198 q 0.707288,0.91752 1.457321,1.792935 c 0,0 0.04211,0.04274 0.06316,0.06412 0.623929,0.718897 1.254982,1.430776 1.921656,2.107567 l 0.301757,0.306337 z m 6.358551,1.681348 -4.084254,-4.146236 q -0.701761,-0.712412 -1.367903,-1.459912 l 6.275977,-10.828347 a 3,3 0 0 0 0.692306,0.09007 l 8.99393,0.09602 a 3,3 0 0 0 0.580238,-0.0522 l 6.237647,11.163009 c -0.384702,0.378951 -0.76228,0.750885 -1.146982,1.129836 L 44.099708,64.52697 A 8.54,8.54 0 0 1 32.079233,64.43645 Z m 22.416741,-5.742765 a 2.59,2.59 0 0 1 -3.611927,3.557932 l -0.942704,-0.643513 q 0.712411,-0.701762 1.382717,-1.446269 l 0.03562,-0.03509 c 0.805771,-0.891983 1.583471,-1.812462 2.304817,-2.761651 z m 5.42272,-22.41044 -10.210332,-0.07689 a 3,3 0 0 0 -0.152471,-0.411281 l -4.189367,-8.029154 a 3,3 0 0 0 -0.412761,-0.590024 l 5.982291,-10.328499 a 24,24 0 0 1 2.15984,1.465875 18.13,18.13 0 0 1 7.038155,14.725885 c -0.02936,1.081683 -0.101251,2.177188 -0.215355,3.24409 z m 7.765405,-8.603824 6.393526,11.121754 -4.505535,-3.60492 a 30.92,30.92 0 0 0 -7.518991,-4.398383 20.16,20.16 0 0 0 -3.960627,-10.233667 14.74,14.74 0 0 1 9.591627,7.115216 z" />
    <path
       inkscape:connector-curvature="0"
       id="path22"
       style="fill:#110e5f;fill-opacity:1;stroke:#110e5f;stroke-opacity:1;stroke-width:2.10921696;stroke-miterlimit:4;stroke-dasharray:none"
       d="m 29.090532,20.918562 a 1,1 0 0 0 0.192351,-0.189476 1,1 0 0 0 0.193108,-1.228946 L 28.62474,17.980478 A 1.0007247,1.0007247 0 1 0 26.877852,18.9573 l 0.851251,1.519662 a 1,1 0 0 0 1.361429,0.4416 z" />
    <path
       inkscape:connector-curvature="0"
       id="path24"
       style="fill:#110e5f;fill-opacity:1;stroke:#110e5f;stroke-opacity:1;stroke-width:2.10921696;stroke-miterlimit:4;stroke-dasharray:none"
       d="m 32.102008,36.059612 -0.01523,2.022268 a 1,1 0 1 0 1.993985,0.01502 l 0.01502,-1.993985 a 1,1 0 0 0 -1.993772,-0.0433 z" />
    <path
       inkscape:connector-curvature="0"
       id="path26"
       style="fill:#110e5f;fill-opacity:1;stroke:#110e5f;stroke-opacity:1;stroke-width:2.10921696;stroke-miterlimit:4;stroke-dasharray:none"
       d="m 37.136573,36.083384 -0.01544,2.050552 a 1.0008621,1.0008621 0 1 0 2.001428,-0.03443 l 0.0147,-1.951559 a 1.0008621,1.0008621 0 0 0 -2.000682,-0.06457 z" />
    <path
       inkscape:connector-curvature="0"
       id="path28"
       style="fill:#110e5f;fill-opacity:1;stroke:#110e5f;stroke-opacity:1;stroke-width:2.10921696;stroke-miterlimit:4;stroke-dasharray:none"
       d="m 42.11425,36.149155 -0.01502,1.993984 a 1,1 0 1 0 1.993984,0.01502 l 0.01502,-1.993985 a 1,1 0 0 0 -1.993985,-0.01502 z" />
  </g>
</svg>
