<?xml version="1.0" encoding="UTF-8" standalone="no"?>
<!-- Generator: Adobe Illustrator 21.0.0, SVG Export Plug-In . SVG Version: 6.00 Build 0)  -->

<svg
   xmlns:dc="http://purl.org/dc/elements/1.1/"
   xmlns:cc="http://creativecommons.org/ns#"
   xmlns:rdf="http://www.w3.org/1999/02/22-rdf-syntax-ns#"
   xmlns:svg="http://www.w3.org/2000/svg"
   xmlns="http://www.w3.org/2000/svg"
   xmlns:sodipodi="http://sodipodi.sourceforge.net/DTD/sodipodi-0.dtd"
   xmlns:inkscape="http://www.inkscape.org/namespaces/inkscape"
   version="1.1"
   id="Capa_1"
   x="0px"
   y="0px"
   viewBox="0 0 537.96117 537.96118"
   xml:space="preserve"
   width="538"
   height="538"
   sodipodi:docname="debug.svg"
   inkscape:version="0.92.4 (f8dce91, 2019-08-02)"><metadata
   id="metadata49"><rdf:RDF><cc:Work
       rdf:about=""><dc:format>image/svg+xml</dc:format><dc:type
         rdf:resource="http://purl.org/dc/dcmitype/StillImage" /><dc:title></dc:title></cc:Work></rdf:RDF></metadata><defs
   id="defs47">
	
	
	
	
	
	
	
	
	
	
	
	
	
	
	
	
	
	
	
	
</defs><sodipodi:namedview
   pagecolor="#ffffff"
   bordercolor="#666666"
   borderopacity="1"
   objecttolerance="10"
   gridtolerance="10"
   guidetolerance="10"
   inkscape:pageopacity="0"
   inkscape:pageshadow="2"
   inkscape:window-width="1600"
   inkscape:window-height="796"
   id="namedview45"
   showgrid="false"
   inkscape:zoom="0.4609375"
   inkscape:cx="-36.997617"
   inkscape:cy="217.8382"
   inkscape:window-x="0"
   inkscape:window-y="27"
   inkscape:window-maximized="1"
   inkscape:current-layer="Capa_1" />
<g
   id="g894"
   transform="translate(19.524015)"><path
     sodipodi:nodetypes="csccccc"
     style="opacity:1;fill:#110e6f;fill-opacity:1"
     d="m 490.15915,507.20683 c -17.401,17.701 -45.45001,17.24032 -63.6,0 l -124.43884,-118.202 30.54369,-30.34465 29.53114,-38.40752 127.96401,123.35417 c 17.701,17.699 17.701,46.2 0,63.6 z"
     id="path2"
     inkscape:connector-curvature="0" /><path
     sodipodi:nodetypes="csccc"
     style="fill:#110e5f;fill-opacity:1"
     d="m 490.15915,507.20683 c -17.401,17.701 -45.46252,17.25348 -63.6,0 L 298.59514,385.47966 332.664,358.66018 Z"
     id="path4"
     inkscape:connector-curvature="0" /><path
     style="opacity:1;fill:#110e6f;fill-opacity:1"
     d="m 332.664,83.260128 c -76.201,-76.5000033 -199.2,-76.1990035 -275.402,0 -76.5,76.201052 -76.199,199.200052 0,275.400052 76.201,76.501 199.2,76.201 275.402,0 76.499,-76.199 76.199,-199.199 0,-275.400052 z"
     id="path10"
     inkscape:connector-curvature="0" /><path
     sodipodi:nodetypes="cccc"
     style="fill:#110e5f;fill-opacity:1"
     d="M 362.19514,320.25266 C 285.18064,443.90786 133.464,435.16118 57.262,358.66018 c -76.199,-76.199 -76.5,-199.199 0,-275.400052 z"
     id="path12"
     inkscape:connector-curvature="0" /><path
     style="fill:#edf5ff"
     d="m 311.663,337.66118 c -64.501,64.499 -168.9,64.499 -233.401,0 -64.499,-64.501 -64.499,-168.9 0,-233.40104 64.501,-64.501012 168.9,-64.501012 233.401,0 64.499,64.50104 64.499,168.90104 0,233.40104 z"
     id="path14"
     inkscape:connector-curvature="0" /><path
     style="opacity:0.11600001;fill:#dce9ff;fill-opacity:1"
     d="m 311.663,337.66118 c -64.501,64.499 -168.9,64.499 -233.401,0 -64.499,-64.501 -64.499,-168.9 0,-233.40104 z"
     id="path16"
     inkscape:connector-curvature="0" /><path
     style="opacity:0.83200001;fill:#110e6f;fill-opacity:1"
     d="m 164.963,145.96118 c -24.814,0 -45,-20.186 -45,-45.00005 0,-8.291002 6.709,-15.000002 15,-15.000002 8.291,0 15,6.709 15,15.000002 0,8.27602 6.724,15.00003 15,15.00003 8.291,0 15,6.70901 15,15.00002 0,8.291 -6.709,15 -15,15 z"
     id="path18"
     inkscape:connector-curvature="0" /><path
     style="opacity:0.83200001;fill:#110e6f;fill-opacity:1"
     d="m 224.963,145.96118 c -8.291,0 -15,-6.709 -15,-15 0,-8.29101 6.709,-15.00002 15,-15.00002 8.276,0 15,-6.72401 15,-15.00003 0,-8.291002 6.709,-15.000002 15,-15.000002 8.291,0 15,6.709 15,15.000002 0,24.81405 -20.186,45.00005 -45,45.00005 z"
     id="path20"
     inkscape:connector-curvature="0" /><path
     style="opacity:0.83200001;fill:#110e6f;fill-opacity:1"
     d="m 128.254,204.37918 -33.164,-16.582 c -2.329,-1.195 -5.127,0.504 -5.127,3.164 0,8.291 -6.709,15 -15,15 -8.291,0 -15,-6.709 -15,-15 0,-24.995 26.315,-41.139 48.53,-30 l 33.179,16.582 c 7.412,3.706 10.415,12.715 6.709,20.127 -3.691,7.361 -12.647,10.423 -20.127,6.709 z"
     id="path22"
     inkscape:connector-curvature="0" /><path
     style="opacity:0.83200001;fill:#110e6f;fill-opacity:1"
     d="m 241.545,197.67018 c -3.706,-7.412 -0.703,-16.421 6.709,-20.127 l 33.164,-16.582 c 22.293,-11.224 48.545,5.109 48.545,30 0,8.291 -6.709,15 -15,15 -8.291,0 -15,-6.709 -15,-15 0,-2.519 -2.552,-4.341 -5.142,-3.164 l -33.149,16.582 c -7.487,3.718 -16.439,0.646 -20.127,-6.709 z"
     id="path24"
     inkscape:connector-curvature="0" /><path
     style="opacity:0.83200001;fill:#110e6f;fill-opacity:1"
     d="m 134.963,355.96118 c -8.291,0 -15,-6.709 -15,-15 v -3.164 c 0,-22.266 12.378,-42.29 32.285,-52.251 7.412,-3.677 16.421,-0.703 20.127,6.709 3.706,7.412 0.703,16.421 -6.709,20.127 -9.683,4.834 -15.703,14.575 -15.703,25.415 v 3.164 c 0,8.291 -6.709,15 -15,15 z"
     id="path26"
     inkscape:connector-curvature="0" /><path
     style="opacity:0.83200001;fill:#110e6f;fill-opacity:1"
     d="m 74.963,295.96118 c -8.291,0 -15,-6.709 -15,-15 0,-24.814 20.186,-45 45,-45 h 30 c 8.291,0 15,6.709 15,15 0,8.291 -6.709,15 -15,15 h -30 c -8.276,0 -15,6.724 -15,15 0,8.291 -6.709,15 -15,15 z"
     id="path28"
     inkscape:connector-curvature="0" /><path
     style="opacity:0.83200001;fill:#110e6f;fill-opacity:1"
     d="m 254.963,355.96118 c -8.291,0 -15,-6.709 -15,-15 v -3.164 c 0,-10.84 -6.021,-20.581 -15.703,-25.415 -7.412,-3.706 -10.415,-12.715 -6.709,-20.127 3.721,-7.412 12.744,-10.386 20.127,-6.709 19.907,9.961 32.285,29.985 32.285,52.251 v 3.164 c 0,8.291 -6.709,15 -15,15 z"
     id="path30"
     inkscape:connector-curvature="0" /><path
     style="opacity:0.83200001;fill:#110e6f;fill-opacity:1"
     d="m 314.963,295.96118 c -8.291,0 -15,-6.709 -15,-15 0,-8.276 -6.724,-15 -15,-15 h -30 c -8.291,0 -15,-6.709 -15,-15 0,-8.291 6.709,-15 15,-15 h 30 c 24.814,0 45,20.186 45,45 0,8.291 -6.709,15 -15,15 z"
     id="path32"
     inkscape:connector-curvature="0" /><path
     style="opacity:0.83200001;fill:#110e6f;fill-opacity:1"
     d="m 269.963,175.96118 -39.3,30 h -71.4 l -39.3,-30 11.4,-18.6 20.099,-33.001 c 2.701,-5.09901 7.8,-8.39902 13.5,-8.39902 h 60 c 5.7,0 10.8,3.30001 13.5,8.39902 z"
     id="path34"
     inkscape:connector-curvature="0" /><polygon
     transform="translate(0,25.998126)"
     style="fill:#2c3b73"
     points="131.363,131.363 179.963,179.963 159.263,179.963 119.963,149.963 "
     id="polygon36" /><path
     style="opacity:1;fill:#110e6f;fill-opacity:1"
     d="m 269.963,175.96118 v 75 c 0,13.2 -3.3,25.499 -9,36 -12.9,23.399 -37.8,39 -66,39 -41.4,0 -75,-33.6 -75,-75 v -75 z"
     id="path38"
     inkscape:connector-curvature="0" /><path
     style="fill:#110e5f;fill-opacity:1"
     d="m 260.963,286.96118 c -12.9,23.399 -37.8,39 -66,39 -41.4,0 -75,-33.6 -75,-75 v -75 h 30 z"
     id="path40"
     inkscape:connector-curvature="0" /></g>















</svg>