<?xml version="1.0" encoding="UTF-8" standalone="no"?>
<!-- Generator: Adobe Illustrator 22.1.0, SVG Export Plug-In . SVG Version: 6.00 Build 0)  -->

<svg
   xmlns:dc="http://purl.org/dc/elements/1.1/"
   xmlns:cc="http://creativecommons.org/ns#"
   xmlns:rdf="http://www.w3.org/1999/02/22-rdf-syntax-ns#"
   xmlns:svg="http://www.w3.org/2000/svg"
   xmlns="http://www.w3.org/2000/svg"
   xmlns:sodipodi="http://sodipodi.sourceforge.net/DTD/sodipodi-0.dtd"
   xmlns:inkscape="http://www.inkscape.org/namespaces/inkscape"
   version="1.1"
   id="Layer_1"
   x="0px"
   y="0px"
   viewBox="0 0 159.02081 162.60001"
   style="enable-background:new"
   xml:space="preserve"
   sodipodi:docname="designer.svg"
   inkscape:version="0.92.4 (f8dce91, 2019-08-02)"
   width="159.02081"
   height="162.60001"
   enable-background="new"><metadata
   id="metadata43"><rdf:RDF><cc:Work
       rdf:about=""><dc:format>image/svg+xml</dc:format><dc:type
         rdf:resource="http://purl.org/dc/dcmitype/StillImage" /><dc:title /></cc:Work></rdf:RDF></metadata><defs
   id="defs41">
	
	
	
	
	
	
	
	
	
	
	
	
	
	
	
	
	
	
	
	
	
	
	
	
	
	
	
	
	
	
	
	
	
<filter
   inkscape:collect="always"
   style="color-interpolation-filters:sRGB"
   id="filter1032"><feBlend
     inkscape:collect="always"
     mode="screen"
     in2="BackgroundImage"
     id="feBlend1034" /></filter><filter
   inkscape:collect="always"
   style="color-interpolation-filters:sRGB"
   id="filter1036"><feBlend
     inkscape:collect="always"
     mode="screen"
     in2="BackgroundImage"
     id="feBlend1038" /></filter><filter
   inkscape:collect="always"
   style="color-interpolation-filters:sRGB"
   id="filter1040"><feBlend
     inkscape:collect="always"
     mode="screen"
     in2="BackgroundImage"
     id="feBlend1042" /></filter><filter
   inkscape:collect="always"
   style="color-interpolation-filters:sRGB"
   id="filter1044"><feBlend
     inkscape:collect="always"
     mode="screen"
     in2="BackgroundImage"
     id="feBlend1046" /></filter><filter
   inkscape:collect="always"
   style="color-interpolation-filters:sRGB"
   id="filter1048"><feBlend
     inkscape:collect="always"
     mode="screen"
     in2="BackgroundImage"
     id="feBlend1050" /></filter><filter
   inkscape:collect="always"
   style="color-interpolation-filters:sRGB"
   id="filter1105"><feBlend
     inkscape:collect="always"
     mode="screen"
     in2="BackgroundImage"
     id="feBlend1107" /></filter></defs><sodipodi:namedview
   pagecolor="#ffffff"
   bordercolor="#666666"
   borderopacity="1"
   objecttolerance="10"
   gridtolerance="10"
   guidetolerance="10"
   inkscape:pageopacity="0"
   inkscape:pageshadow="2"
   inkscape:window-width="1600"
   inkscape:window-height="796"
   id="namedview39"
   showgrid="false"
   inkscape:zoom="1.5733333"
   inkscape:cx="-45.829223"
   inkscape:cy="109.89695"
   inkscape:window-x="0"
   inkscape:window-y="27"
   inkscape:window-maximized="1"
   inkscape:current-layer="layer1"
   fit-margin-top="0"
   fit-margin-left="0"
   fit-margin-right="0"
   fit-margin-bottom="0" />
<style
   type="text/css"
   id="style2">
	.st0{fill:none;}
	.st1{fill:#676767;}
	.st2{fill:#676767;stroke:#676767;stroke-miterlimit:10;}
	.st3{fill:#6B9ED5;}
	.st4{fill:#6B6B6B;}
	.st5{fill:#6B6B6B;stroke:#6B6B6B;stroke-miterlimit:10;}
	.st6{fill:#6B9ED5;stroke:#6B9ED5;stroke-miterlimit:10;}
	.st7{fill:#6B9ED5;stroke:#6B9ED5;stroke-width:2;stroke-miterlimit:10;}
	.st8{fill:#676667;stroke:#676667;stroke-width:2;stroke-miterlimit:10;}
	.st9{fill:#676667;stroke:#676667;stroke-miterlimit:10;}
	.st10{fill:#676667;}
	.st11{fill:#6B9ED5;stroke:#6B9ED5;stroke-width:3;stroke-miterlimit:10;}
	.st12{fill:#FFFFFF;}
	.st13{fill:#6C9FD6;}
	.st14{fill:#6C9FD6;stroke:#6C9FD6;stroke-width:2;stroke-miterlimit:10;}
</style>

<g
   inkscape:groupmode="layer"
   id="layer1"
   inkscape:label="top"
   style="display:inline"
   transform="translate(9.149593,6.3000002)"><path
     style="opacity:1;fill:#110e5f;fill-opacity:1;stroke:none;stroke-miterlimit:10;stroke-opacity:1;filter:url(#filter1105)"
     inkscape:connector-curvature="0"
     d="m 71.086003,140.84322 c -10.400003,0 -20.800003,0 -31.300003,0 -4.1,0 -7.7,-3 -8.4,-7.1 -0.1,-0.6 -0.1,-0.8 -0.1,-0.9 0.1,0 0.3,-0.1 0.9,-0.1 0.1,0 0.3,0 0.4,0 0.3,0 0.5,0 0.8,0 0.3,0 0.5,0 0.8,0 h 0.3 c 0.2,0 0.2,0 0.4,0.3 1.3,3.3 2.7,4.4 6.3,4.4 2.5,0 5,0 7.5,0 h 10.2 45.2 0.8 c 0.3,0 0.7,0 1.1,0 3.4,-0.3 5.2,-2.1 5.3,-5.4 0.1,-2.7 0.1,-5.5 0.1,-8.2 0,-1.5 0,-3.1 0,-4.6 0,-0.6 -0.1,-1.1 -0.5,-1.4 -0.5,-0.5 -1.1,-0.5 -1.5,-0.5 h -0.4 -8.2 c -5.099997,0 -10.199997,0 -15.299997,0 h -12.3 c -4.900003,0 -9.800003,0 -14.700003,0 -2.4,0 -2.7,0.3 -2.7,2.7 0,1.1 0,2.2 0,3.3 v 1.7 c 0,0.7 0,1.4 -0.1,1.6 -0.2,0.1 -0.8,0.1 -1.5,0.1 h -32 -17.8000001 c -0.6,0 -1.1,0 -1.3,-0.1 -0.1,-0.2 -0.1,-0.8 -0.1,-1.3 0,-6.5 0,-13 0,-19.5 0,-0.4 0,-1 0.1,-1.2 0.2,-0.1 0.8,-0.1 1.1,-0.1 H 24.386 c 9.6,0 19.9,0 30.2,0 0.7,0 1,0.1 1.1,0.2 0.1,0.1 0.2,0.5 0.1,0.9 -0.1,1.1 -0.1,2.3 0,3.4 0,0.8 0,1.7 0,2.5 0,0.6 0,1.3 0.5,1.8 0.5,0.5 1.2,0.6 1.7,0.6 7.5,0 15.000003,0 22.500003,0 10.1,0 19.5,0 28.599997,0 v 0 c 0.4,0 1.4,0 1.9,-0.8 0.3,-0.5 0.3,-1.1 0.3,-1.7 0,-19.9 0,-39.7 0,-59.6 v -13.2 c 0,-0.5 0,-1 0,-1.4 0,-0.9 0,-1.9 0,-2.8 0,-0.6 -0.1,-1.1 -0.5,-1.4 -0.3,-0.3 -0.7,-0.5 -1.3,-0.5 -0.1,0 -0.1,0 -0.2,0 0,0 -0.1,0 -0.1,0 -0.1,0 -0.1,0 -0.2,0 -0.1,0 -0.2,0 -0.2,0 H 85.086003 c -11.6,0 -25.200003,0 -38.700003,0 v 0 c -0.6,0 -1.4,0.1 -2,0.6 -0.5,0.5 -0.6,1.3 -0.6,2 0,6.4 0,13 0,19.3 v 5.2 c 0,0.5 0,1 0,1.2 -0.2,0 -0.7,0 -1.2,0 -12.9,0 -25.7,0 -38.6000001,0 -0.5,0 -1,0 -1.2,-0.1 -0.1,-0.2 -0.1,-0.8 -0.1,-1.3 0,-12.8 0,-25.6 0,-38.5 0,-0.5 0,-1.1 0.1,-1.3 0.2,-0.1 0.8,-0.1 1.3,-0.1 6.2000001,0 12.4000001,0 18.6000001,0 6.6,0 13.3,0 19.9,0 0.5,0 1.1,0 1.3,0.1 0.1,0.2 0.1,0.7 0.1,1.2 0,0.5 0,1 0,1.5 0,1.4 0,2.8 0,4.2 0,0.5 0,1.3 0.5,1.8 0.5,0.5 1.3,0.6 1.9,0.6 9.6,0 19.2,0 28.100003,0 h 14.3 c 1.6,0 3.2,0 4.8,0 1.6,0 3.3,0 4.9,0 2.799997,0 6.499997,0 10.299997,0 h 0.1 c 0.6,0 1.3,-0.1 1.9,-0.6 0.5,-0.5 0.6,-1.3 0.6,-1.9 0,-2.3 0,-4.6 0,-6.8 0,-1.5 0,-3 0,-4.5 0,-4.2 -2.2,-6.2999999 -6.4,-6.2999999 -11.199997,0 -22.499997,0 -33.699997,0 0,0 -23.500003,0 -30.300003,0 -4.6,0 -6,2.4999999 -6.3,4.4999999 0,0.1 0,0.2 -0.3,0.2 h -0.3 c -0.3,0 -0.5,0 -0.8,0 -0.3,0 -0.5,0 -0.8,0 h -0.1 c -1,0 -1.3,-0.1 -1.3,-0.2 0,-0.1 -0.1,-0.4 0.2,-1.4 1,-3.8999999 4.3,-6.5999999 8.3,-6.5999999 11.7,0 23.4,0 35.100003,0 10.5,0 20.9,0 31.399997,0 5,0 8.6,3.8 8.6,8.8999999 0,14.1 0,28.4 0,42.2 v 16.6 c 0,5.3 0,10.6 0,15.8 0,14 0,28.5 0,42.7 0,3.9 -1.6,6.6 -4.9,8.4 -1.1,0.6 -2.2,0.8 -3.6,0.8 0.3,0.1 -28.899997,0.1 -35.099997,0.1 z m -62.4000031,-33 c -0.5,0 -1.3,0.1 -1.8,0.6 -0.5,0.5 -0.6,1.3 -0.6,1.8 0.1,3.5 0.1,7 0,10.9 0,0.5 0,1.3 0.6,1.8 0.5,0.5 1.3,0.6 1.8,0.6 8.6000001,0 17.3000001,0 25.8000001,0 5.3,0 10.5,0 15.8,0 0.5,0 1.3,-0.1 1.8,-0.6 0.5,-0.5 0.6,-1.3 0.6,-1.8 0,-3.2 -0.1,-6.9 0,-10.6 0,-0.6 0,-1.5 -0.6,-2 -0.6,-0.6 -1.4,-0.6 -2,-0.6 h -0.1 c -2.8,0 -5.8,0 -9.7,0 -1.8,0 -3.6,0 -5.4,0 -1.8,0 -3.6,0 -5.4,0 h -0.7 v 0 c -1.5,0 -8.1,0 -9.8,0 -4.2,-0.1 -7.3,-0.1 -10.3000001,-0.1 z m 0.2,-84.9 c -0.7,0 -1.4,0.1 -2,0.6 -0.5,0.5 -0.6,1.3 -0.6,2 0.1,9.2 0.1,18.8 0,29.3 0,0.7 0.1,1.4 0.6,1.9 0.5,0.5 1.3,0.6 1.9,0.6 v 0 c 4.7000001,0 9.7000001,0 14.7000001,0 4.7,0 9.7,0 14.8,0 v 0 c 0.6,0 1.4,-0.1 1.9,-0.6 0.5,-0.5 0.6,-1.3 0.6,-1.8 0,-3.6 0,-7.2 0,-10.7 0,-1.3 0,-2.7 0,-4 0,-1.3 0,-2.7 0,-4 0,-3.5 0,-7.1 0,-10.7 0,-0.6 0,-1.4 -0.6,-1.9 -0.5,-0.5 -1.3,-0.6 -1.9,-0.6 -4.9,0 -9.8,0 -14.7,0 -4.8,-0.1 -9.8,-0.1 -14.7000001,-0.1 z"
     class="st9"
     id="XMLID_943_" /><path
     style="fill:#110e5f;fill-opacity:1;stroke:#110e5f;stroke-opacity:1;filter:url(#filter1048)"
     inkscape:connector-curvature="0"
     d="m 146.35041,119.25 c -4.2,0 -8.4,0 -12.6,0 -4.2,0 -8.4,0 -12.6,0 v 0 c -0.6,0 -0.7,-0.1 -0.8,-0.1 0,0 -0.1,-0.2 -0.1,-0.7 0,-8.1 0,-16.4 0,-25.3 0,-0.5 0.1,-0.6 0.1,-0.7 0,0 0.2,-0.1 0.7,-0.1 v 0 c 1.7,0 3.5,0 5.8,0 1.2,0 2.4,0 3.6,0 1.1,0 3.5,0 3.5,0 1.1,0 2.3,0 3.4,0 1.1,0 2.3,0 3.4,0 2.2,0 3.9,0 5.5,0 h 0.1 c 0.5,0 0.7,0.1 0.7,0.1 0,0 0.2,0.2 0.1,0.8 0,7.9 0,16.2 0,25.2 0,0.5 -0.1,0.7 -0.1,0.7 0.1,0 -0.1,0.1 -0.7,0.1 z m -20.5,-23.7 c -0.5,0 -1.2,0.1 -1.6,0.5 -0.5,0.5 -0.5,1.2 -0.5,1.7 0,1.8 0,3.7 0,5.6 0,0.7 0,1.5 0,2.2 0,0.8 0,1.5 0,2.3 0,1.9 0,3.8 0,5.6 0,0.6 0,1.3 0.5,1.8 0.5,0.5 1.2,0.6 1.7,0.6 v 0 c 2.6,0 5.3,0 8.2,0 2.6,0 5.1,0 7.7,0 v 0 c 0.5,0 1.1,-0.1 1.6,-0.5 0.5,-0.5 0.5,-1.1 0.5,-1.6 0,-5.5 0,-10.8 0,-15.9 0,-0.5 -0.1,-1.2 -0.5,-1.7 -0.5,-0.5 -1.1,-0.5 -1.6,-0.5 -2.6,0 -5.3,0 -7.9,0 -2.7,0 -5.4,0 -8.1,-0.1 z"
     class="st10"
     id="XMLID_934_" /><path
     style="fill:#110e5f;fill-opacity:1;stroke:#110e5f;stroke-miterlimit:10;stroke-opacity:1;filter:url(#filter1044)"
     inkscape:connector-curvature="0"
     d="m 33.150408,100.35 c -0.4,0 -0.8,0 -1.1,0 -0.6,0 -1.2,0 -1.4,-0.1 0,-0.2 0,-0.7 0,-1.2 0,-0.3 0,-0.7 0,-1.2 0,-3.7 0,-7.4 0,-11.2 0,-5.6 0,-11.3 0,-17 0,-0.7 0.1,-0.9 0.2,-1 0.1,-0.1 0.4,-0.2 0.8,-0.2 0.1,0 0.1,0 0.2,0 0.4,0 0.7,0 1,0 0.5,0 1.1,0 1.3,0.1 0,0.2 0,0.7 0,1.2 0,0.3 0,0.6 0,1 0,3.2 0,6.5 0,9.7 v 4 c 0,1.3 0,2.7 0,4 0,3.6 0,7.3 0,10.9 0,0.6 -0.1,0.8 -0.1,0.8 0,0 -0.2,0.1 -0.7,0.1 z"
     class="st9"
     id="XMLID_1225_" /><path
     style="fill:#110e5f;fill-opacity:1;stroke:#110e5f;stroke-opacity:1;filter:url(#filter1040)"
     inkscape:connector-curvature="0"
     d="m 72.350408,131.75 c -1.9,0 -3.7,0 -5.6,0 -0.9,0 -1.4,-0.3 -1.4,-1.3 0.1,-4.3 -0.4,-3.5 3.4,-3.6 3.1,0 6.3,0 9.4,0 1.2,0 1.5,0.4 1.5,1.6 -0.1,3.9 0.4,3.3 -3.2,3.4 -1.4,-0.1 -2.8,-0.1 -4.1,-0.1 0,0 0,0 0,0 z"
     class="st10"
     id="XMLID_1223_" /><path
     style="fill:#110e5f;fill-opacity:1;stroke:#110e5f;stroke-opacity:1;filter:url(#filter1036)"
     inkscape:connector-curvature="0"
     d="m 77.150408,23.25 c -1.9,0 -3.8,0 -5.7,0 -1,0 -1.4,-0.4 -1.4,-1.4 0.1,-4.2 -0.4,-3.5 3.4,-3.5 3.1,0 6.3,0 9.4,0 1.2,0 1.6,0.4 1.6,1.6 -0.1,3.8 0.4,3.2 -3.3,3.3 -1.4,0 -2.7,0 -4,0 0,0 0,0 0,0 z"
     class="st10"
     id="XMLID_1222_" /><path
     style="fill:#110e5f;fill-opacity:1;stroke:#110e5f;stroke-opacity:1;filter:url(#filter1032)"
     inkscape:connector-curvature="0"
     d="m 62.950408,23.25 c -2.4,0 -2.4,0 -2.4,-2.5 0,-2.4 0,-2.4 2.6,-2.4 2.3,0 2.3,0 2.3,2.6 0,2.3 0,2.3 -2.5,2.3 z"
     class="st10"
     id="XMLID_1220_" /><path
     style="display:inline;fill:#110e5f;fill-opacity:1;stroke:#110e5f;stroke-opacity:1;enable-background:new"
     inkscape:connector-curvature="0"
     d="m -3.6786419,76.70662 c 0.5,0 1.1,-0.1 1.6,-0.1 3.3,0 3.8,0.7 3.2,3.999999 -0.1,0.7 -0.6,0.8 -1.1,0.8 -1.2,0 -2.4,0 -3.6,-0.1 -0.1,-1.499999 -0.1,-3.099999 -0.1,-4.599999 z"
     class="st13"
     id="XMLID_1236_" /><path
     style="display:inline;fill:#110e5f;fill-opacity:1;stroke:#110e5f;stroke-opacity:1;enable-background:new"
     inkscape:connector-curvature="0"
     d="m -3.6786419,86.106619 c 0.5,0 1.1,-0.1 1.6,-0.1 3.3,0 3.9,0.8 3.2,4.1 -0.1,0.7 -0.6,0.8 -1.1,0.8 -1.2,0 -2.4,-0.1 -3.6,-0.1 -0.1,-1.6 -0.1,-3.1 -0.1,-4.7 z"
     class="st13"
     id="XMLID_1235_" /><path
     style="display:inline;fill:#110e5f;fill-opacity:1;stroke:#110e5f;stroke-opacity:1;enable-background:new"
     inkscape:connector-curvature="0"
     d="m -3.6786419,95.506618 c 0.5,0 1.1,-0.1 1.6,-0.1 3.3,0 3.8,0.7 3.2,4.1 -0.1,0.700002 -0.6,0.800002 -1.1,0.800002 -1.2,0 -2.4,0 -3.6,-0.1 -0.1,-1.500002 -0.1,-3.100002 -0.1,-4.700002 z"
     class="st13"
     id="XMLID_1234_" /><path
     style="display:inline;fill:#110e5f;fill-opacity:1;stroke:#110e5f;stroke-opacity:1;enable-background:new"
     inkscape:connector-curvature="0"
     d="m 71.821358,97.906618 c -13.2,0 -24.3,-10.799999 -23.7,-24.899998 0.5,-12.1 11.2,-22.400001 23.5,-22.400001 13.2,0.1 24.3,10.800001 23.7,25.000001 -0.5,12.199999 -11.2,22.499998 -23.5,22.299998 z m 18.8,-22.899998 c 0,-10.7 -8.4,-19.400001 -18.4,-19.600001 -11.8,-0.2 -21.1,10.700001 -19,22.400001 0.6,3.399999 2,6.499999 4.5,8.999999 0.6,0.6 1,0.7 1.4,-0.2 0.3,-0.5 0.6,-1 1,-1.5 2.8,-3.8 6.5,-5.999999 11.4,-6.099999 5.5,0 9.7,2.599999 12.6,7.199999 0.8,1.3 1.3,1.1 2.1,0.1 2.7,-3.5 4.3,-7.399999 4.4,-11.299999 z m -19.7,18.199998 c 3.2,0 6,-0.6 8.1,-1.6 1.7,-0.799999 1.9,-0.999999 0.9,-2.699999 -1.8,-3.2 -4.7,-5.1 -8.4,-5 -3.9,0.1 -6.7,2.2 -8.4,5.7 -0.5,0.9 -0.3,1.499999 0.7,1.899999 2.5,0.9 5.1,1.6 7.1,1.7 z"
     class="st13"
     id="XMLID_939_" /><path
     style="display:inline;fill:#110e5f;fill-opacity:1;stroke:#110e5f;stroke-opacity:1;enable-background:new"
     inkscape:connector-curvature="0"
     d="m 130.72136,17.80662 c -3.4,0 -6.9,0 -10.3,0 -1.2,0 -1.6,-0.4 -1.6,-1.6 0.1,-3.8 -0.4,-3.3 3.3,-3.3 6.2,0 12.4,0 18.7,0 1.4,0 1.9,0.4 1.8,1.8 -0.1,3.5 0.3,3 -3.1,3.1 -2.9,0 -5.9,0 -8.8,0 z"
     class="st13"
     id="XMLID_1224_" /><path
     style="display:inline;fill:#110e5f;fill-opacity:1;stroke:#110e5f;stroke-opacity:1;enable-background:new"
     inkscape:connector-curvature="0"
     d="m 126.02136,22.30662 c 1.9,0 3.8,0 5.7,0 1,0 1.4,0.3 1.4,1.399999 -0.1,4.2 0.4,3.5 -3.3,3.5 -3.1,0 -6.3,0 -9.4,0 -1.2,0 -1.7,-0.4 -1.6,-1.6 0.1,-3.899999 -0.4,-3.299999 3.3,-3.299999 1.3,0 2.6,0 3.9,0 0,0 0,0 0,0 z"
     class="st13"
     id="XMLID_1221_" /><path
     style="display:inline;fill:#110e5f;fill-opacity:1;stroke:#110e5f;stroke-opacity:1;enable-background:new"
     inkscape:connector-curvature="0"
     d="m 102.52136,48.406619 c -2.6,0 -2.6,0 -2.6,-2.4 0,-2.5 0,-2.5 2.4,-2.5 2.5,0 2.5,0 2.5,2.5 0,2.4 0,2.4 -2.3,2.4 z"
     class="st13"
     id="XMLID_1219_" /><path
     style="display:inline;fill:#110e5f;fill-opacity:1;stroke:#110e5f;stroke-opacity:1;enable-background:new"
     inkscape:connector-curvature="0"
     d="m 140.12136,67.30662 c -2.8,0 -2.3,0.1 -2.4,-3 0,-1.9 0,-1.9 2,-1.9 3.1,0 2.9,-0.4 2.9,2.6 0,2.3 0,2.3 -2.5,2.3 z"
     class="st13"
     id="XMLID_1218_" /><path
     style="display:inline;fill:#110e5f;fill-opacity:1;stroke:#110e5f;stroke-opacity:1;enable-background:new"
     inkscape:connector-curvature="0"
     d="m 118.82136,64.80662 c 0,-2.4 0,-2.4 2.5,-2.4 2.3,0 2.3,0 2.3,2.6 0,2.3 0,2.3 -2.6,2.3 -2.2,0 -2.2,0 -2.2,-2.5 z"
     class="st13"
     id="XMLID_1217_" /><path
     style="display:inline;fill:#110e5f;fill-opacity:1;stroke:#110e5f;stroke-opacity:1;enable-background:new"
     inkscape:connector-curvature="0"
     d="m 10.521358,79.00662 c 0,2.399999 0,2.399999 -1.9,2.399999 -2.9999999,0 -2.9999999,0 -2.9999999,-2.199999 0,-2.7 0,-2.7 2.0999999,-2.7 2.8,0.1 2.8,0.1 2.8,2.5 z"
     class="st13"
     id="XMLID_1216_" /><path
     style="display:inline;fill:#110e5f;fill-opacity:1;stroke:#110e5f;stroke-opacity:1;enable-background:new"
     inkscape:connector-curvature="0"
     d="m 17.521358,76.60662 c 2.4,0 2.4,0 2.4,2.5 0,2.399999 0,2.399999 -2.6,2.399999 -2.3,0 -2.3,0 -2.3,-2.599999 0,-2.3 0,-2.3 2.5,-2.3 z"
     class="st13"
     id="XMLID_1215_" /><path
     style="display:inline;fill:#110e5f;fill-opacity:1;stroke:#110e5f;stroke-opacity:1;enable-background:new"
     inkscape:connector-curvature="0"
     d="m 102.32136,67.30662 c -2.4,0 -2.4,0 -2.3,-3 0,-1.9 0,-1.9 2.9,-1.9 2,0 2,0 2,3.1 -0.1,1.8 -0.1,1.8 -2.6,1.8 z"
     class="st13"
     id="XMLID_1214_" /><path
     style="display:inline;fill:#110e5f;fill-opacity:1;stroke:#110e5f;stroke-opacity:1;enable-background:new"
     inkscape:connector-curvature="0"
     d="m 142.62136,55.506619 c 0,2.4 0,2.4 -2.4,2.4 -2.5,0 -2.5,0 -2.5,-2.6 0,-2.3 0,-2.3 2.5,-2.3 2.4,0 2.4,0 2.4,2.5 z"
     class="st13"
     id="XMLID_1213_" /><path
     style="display:inline;fill:#110e5f;fill-opacity:1;stroke:#110e5f;stroke-opacity:1;enable-background:new"
     inkscape:connector-curvature="0"
     d="m 19.921358,88.506619 c 0,2.4 0,2.4 -2.5,2.4 -2.3,0 -2.3,0 -2.3,-2.6 0,-2.3 0,-2.3 2.6,-2.3 2.2,0 2.2,0 2.2,2.5 z"
     class="st13"
     id="XMLID_1212_" /><path
     style="display:inline;fill:#110e5f;fill-opacity:1;stroke:#110e5f;stroke-opacity:1;enable-background:new"
     inkscape:connector-curvature="0"
     d="m 99.92136,55.306619 c 0,-2.3 0,-2.3 2.6,-2.3 2.3,0 2.3,0 2.3,2.6 0,2.3 0,2.3 -2.7,2.3 -2.2,0 -2.2,0 -2.2,-2.6 z"
     class="st13"
     id="XMLID_1211_" /><path
     style="display:inline;fill:#110e5f;fill-opacity:1;stroke:#110e5f;stroke-opacity:1;enable-background:new"
     inkscape:connector-curvature="0"
     d="m 10.521358,97.906618 c 0,2.400002 0,2.400002 -2.5,2.400002 -2.3999999,0 -2.3999999,0 -2.3999999,-2.600002 0,-2.3 0,-2.3 2.5999999,-2.3 2.3,0 2.3,0 2.3,2.5 z"
     class="st13"
     id="XMLID_1210_" /><path
     style="display:inline;fill:#110e5f;fill-opacity:1;stroke:#110e5f;stroke-opacity:1;enable-background:new"
     inkscape:connector-curvature="0"
     d="m 19.921358,97.906618 c 0,2.400002 0,2.400002 -2.2,2.400002 -2.7,0 -2.7,0 -2.7,-2.200002 0,-2.7 0,-2.7 2.3,-2.7 2.6,0 2.6,0 2.6,2.5 z"
     class="st13"
     id="XMLID_1209_" /><path
     style="display:inline;fill:#110e5f;fill-opacity:1;stroke:#110e5f;stroke-opacity:1;enable-background:new"
     inkscape:connector-curvature="0"
     d="m 140.12136,48.406619 c -2.4,0 -2.4,0 -2.4,-2.5 0,-2.4 0,-2.4 2.6,-2.3 2.3,0 2.3,0 2.3,2.6 0,2.2 0,2.2 -2.5,2.2 z"
     class="st13"
     id="XMLID_1208_" /><path
     style="display:inline;fill:#110e5f;fill-opacity:1;stroke:#110e5f;stroke-opacity:1;enable-background:new"
     inkscape:connector-curvature="0"
     d="m 130.62136,48.406619 c -2.4,0 -2.4,0 -2.4,-2.5 0,-2.4 0,-2.4 2.4,-2.4 2.5,0 2.5,0 2.5,2.6 0,2.3 0,2.3 -2.5,2.3 z"
     class="st13"
     id="XMLID_1207_" /><path
     style="display:inline;fill:#110e5f;fill-opacity:1;stroke:#110e5f;stroke-opacity:1;enable-background:new"
     inkscape:connector-curvature="0"
     d="m 121.22136,48.406619 c -2.7,0 -2.4,0.2 -2.4,-3 0,-2 0,-2 3,-1.9 1.9,0 1.9,0 1.9,3.2 0,1.8 0,1.8 -2.5,1.7 z"
     class="st13"
     id="XMLID_1206_" /><path
     style="display:inline;fill:#110e5f;fill-opacity:1;stroke:#110e5f;stroke-opacity:1;enable-background:new"
     inkscape:connector-curvature="0"
     d="m 133.12136,64.90662 c 0,2.4 0,2.4 -2.4,2.4 -2.5,0 -2.5,0 -2.5,-2.6 0,-2.3 0,-2.3 2.5,-2.3 2.4,0 2.4,0 2.4,2.5 z"
     class="st13"
     id="XMLID_1205_" /><path
     style="display:inline;fill:#110e5f;fill-opacity:1;stroke:#110e5f;stroke-opacity:1;enable-background:new"
     inkscape:connector-curvature="0"
     d="m 22.121358,34.306619 c -3.3,0 -6.7,0 -10,0 -1.3,0 -1.9,-0.3 -1.8,-1.7 0.1,-3.5 -0.3,-3.1 3,-3.1 6.2,0 12.5,0 18.7,0 2,0 2,0 2,1.9 0,3.2 0.3,2.9 -2.9,2.9 -3,0 -6,0 -9,0 0,0 0,0 0,0 z"
     class="st13"
     id="XMLID_1204_" /><path
     style="display:inline;fill:#110e5f;fill-opacity:1;stroke:#110e5f;stroke-opacity:1;enable-background:new"
     inkscape:connector-curvature="0"
     d="m 22.021358,43.706619 c -3.4,0 -6.8,0 -10.2,0 -1.1,0 -1.6,-0.4 -1.6,-1.5 0.1,-3.9 -0.3,-3.3 3.3,-3.3 6.2,0 12.5,0 18.7,0 1.3,0 1.8,0.4 1.8,1.8 -0.1,3.5 0.3,3.1 -3.1,3.1 -2.9,-0.1 -5.9,-0.1 -8.9,-0.1 z"
     class="st13"
     id="XMLID_1203_" /><path
     style="display:inline;fill:#110e5f;fill-opacity:1;stroke:#110e5f;stroke-opacity:1;enable-background:new"
     inkscape:connector-curvature="0"
     d="m 16.321358,53.106619 c -1.6,0 -3.1,0 -4.7,0 -0.9,0 -1.3,-0.4 -1.3,-1.3 0,-4.2 -0.4,-3.5 3.3,-3.5 2.4,0 4.7,0 7.1,0 1.1,0 1.6,0.4 1.5,1.6 -0.1,3.9 0.3,3.3 -3.3,3.3 -0.8,0 -1.7,-0.1 -2.6,-0.1 0,0 0,0 0,0 z"
     class="st13"
     id="XMLID_1202_" /><path
     style="display:inline;fill:#110e5f;fill-opacity:1;stroke:#110e5f;stroke-opacity:1;enable-background:new"
     inkscape:connector-curvature="0"
     d="m 28.121358,119.10662 c -3.8,0 -7.6,0 -11.3,0 -1.3,0 -1.7,-0.4 -1.7,-1.7 0.1,-3.4 -0.2,-3 3,-3 7,0 14,0 21,0 1.9,0 2,0 2,2 0,2.8 0,2.8 -2.7,2.8 -3.4,-0.1 -6.9,-0.1 -10.3,-0.1 z"
     class="st13"
     id="XMLID_1201_" /><path
     style="display:inline;fill:#110e5f;fill-opacity:1;stroke:#110e5f;stroke-opacity:1;enable-background:new"
     inkscape:connector-curvature="0"
     d="m 78.821358,69.40662 c 0,4.1 -3.1,7.3 -7.3,7.3 -3.8,0 -6.9,-3.3 -6.9,-7.2 0,-3.9 3.1,-7 7,-7 4,0 7.2,3.1 7.2,6.9 z m -4.8,0.1 c 0,-1.1 -1.1,-2.1 -2.2,-2.2 -1.2,0 -2.4,1.2 -2.3,2.4 0,1.1 1.1,2.2 2.2,2.2 1.1,-0.1 2.3,-1.2 2.3,-2.4 z"
     class="st13"
     id="XMLID_897_" /><path
     style="display:inline;fill:#110e5f;fill-opacity:1;stroke:#110e5f;stroke-opacity:1;enable-background:new"
     inkscape:connector-curvature="0"
     d="m 133.12136,102.50662 c 2.4,0 2.4,0 2.4,2.4 0,2.4 0,2.4 -2.5,2.4 -2.3,0 -2.3,0 -2.3,-2.5 -0.1,-2.3 -0.1,-2.3 2.4,-2.3 z"
     class="st13"
     id="XMLID_1198_" /><path
     style="display:inline;fill:#110e5f;fill-opacity:1;stroke:#110e5f;stroke-opacity:1;enable-background:new"
     inkscape:connector-curvature="0"
     d="m 131.31256,130.17267 c -3.3,0 -6.7,0 -10,0 -1.3,0 -1.9,-0.3 -1.8,-1.7 0.1,-3.5 -0.3,-3.1 3,-3.1 6.2,0 12.5,0 18.7,0 2,0 2,0 2,1.9 0,3.2 0.3,2.9 -2.9,2.9 -3,0 -6,0 -9,0 0,0 0,0 0,0 z"
     class="st13"
     id="XMLID_1204_-3" /><path
     style="display:inline;fill:#110e5f;fill-opacity:1;stroke:#110e5f;stroke-opacity:1;enable-background:new"
     inkscape:connector-curvature="0"
     d="m 131.21256,139.57267 c -3.4,0 -6.8,0 -10.2,0 -1.1,0 -1.6,-0.4 -1.6,-1.5 0.1,-3.9 -0.3,-3.3 3.3,-3.3 6.2,0 12.5,0 18.7,0 1.3,0 1.8,0.4 1.8,1.8 -0.1,3.5 0.3,3.1 -3.1,3.1 -2.9,-0.1 -5.9,-0.1 -8.9,-0.1 z"
     class="st13"
     id="XMLID_1203_-6" /><path
     style="display:inline;fill:#110e5f;fill-opacity:1;stroke:#110e5f;stroke-opacity:1;enable-background:new"
     inkscape:connector-curvature="0"
     d="m 125.51256,148.97267 c -1.6,0 -3.1,0 -4.7,0 -0.9,0 -1.3,-0.4 -1.3,-1.3 0,-4.2 -0.4,-3.5 3.3,-3.5 2.4,0 4.7,0 7.1,0 1.1,0 1.6,0.4 1.5,1.6 -0.1,3.9 0.3,3.3 -3.3,3.3 -0.8,0 -1.7,-0.1 -2.6,-0.1 0,0 0,0 0,0 z"
     class="st13"
     id="XMLID_1202_-0" /><path
     style="display:inline;fill:#110e5f;fill-opacity:1;stroke:#110e5f;stroke-opacity:1;enable-background:new"
     inkscape:connector-curvature="0"
     d="m 70.935147,108.39552 c -3.8,0 -7.6,0 -11.3,0 -1.3,0 -1.7,-0.4 -1.7,-1.7 0.1,-3.4 -0.2,-3 3,-3 7,0 14,0 21,0 1.9,0 2,0 2,2 0,2.8 0,2.8 -2.7,2.8 -3.4,-0.1 -6.9,-0.1 -10.3,-0.1 z"
     class="st13"
     id="XMLID_1201_-6" /><path
     style="display:inline;fill:#110e5f;fill-opacity:1;stroke:#110e5f;stroke-opacity:1;enable-background:new"
     inkscape:connector-curvature="0"
     d="m 70.935147,116.02264 c -3.8,0 -7.6,0 -11.3,0 -1.3,0 -1.7,-0.4 -1.7,-1.7 0.1,-3.4 -0.2,-3 3,-3 7,0 14,0 21,0 1.9,0 2,0 2,2 0,2.8 0,2.8 -2.7,2.8 -3.4,-0.1 -6.9,-0.1 -10.3,-0.1 z"
     class="st13"
     id="XMLID_1201_-2" /></g></svg>