<?xml version="1.0" encoding="UTF-8" standalone="no"?>
<!-- Generator: Adobe Illustrator 22.1.0, SVG Export Plug-In . SVG Version: 6.00 Build 0)  -->

<svg
   xmlns:dc="http://purl.org/dc/elements/1.1/"
   xmlns:cc="http://creativecommons.org/ns#"
   xmlns:rdf="http://www.w3.org/1999/02/22-rdf-syntax-ns#"
   xmlns:svg="http://www.w3.org/2000/svg"
   xmlns="http://www.w3.org/2000/svg"
   xmlns:sodipodi="http://sodipodi.sourceforge.net/DTD/sodipodi-0.dtd"
   xmlns:inkscape="http://www.inkscape.org/namespaces/inkscape"
   version="1.1"
   id="Layer_1"
   x="0px"
   y="0px"
   viewBox="0 0 77.686516 67.300003"
   xml:space="preserve"
   sodipodi:docname="gameofcodes.svg"
   width="77.686516"
   height="67.300003"
   inkscape:version="0.92.3 (2405546, 2018-03-11)"><metadata
   id="metadata27"><rdf:RDF><cc:Work
       rdf:about=""><dc:format>image/svg+xml</dc:format><dc:type
         rdf:resource="http://purl.org/dc/dcmitype/StillImage" /><dc:title></dc:title></cc:Work></rdf:RDF></metadata><defs
   id="defs25" /><sodipodi:namedview
   pagecolor="#ffffff"
   bordercolor="#666666"
   borderopacity="1"
   objecttolerance="10"
   gridtolerance="10"
   guidetolerance="10"
   inkscape:pageopacity="0"
   inkscape:pageshadow="2"
   inkscape:window-width="1366"
   inkscape:window-height="676"
   id="namedview23"
   showgrid="false"
   fit-margin-top="0"
   fit-margin-left="0"
   fit-margin-right="0"
   fit-margin-bottom="0"
   inkscape:zoom="2.36"
   inkscape:cx="-11.32115"
   inkscape:cy="33.55"
   inkscape:window-x="0"
   inkscape:window-y="27"
   inkscape:window-maximized="1"
   inkscape:current-layer="Layer_1" />
<style
   type="text/css"
   id="style2">
	.st0{fill:#3FA7CE;}
</style>
<g
   id="g20"
   style="opacity:0.97000002;fill:#110e5f;fill-opacity:1;stroke:#110e5f;stroke-width:1.08140431;stroke-miterlimit:4;stroke-dasharray:none;stroke-opacity:1"
   transform="matrix(1.0005583,0,0,0.91197315,-11.985103,-11.337719)">
	<g
   id="g6"
   style="fill:#110e5f;fill-opacity:1;stroke:#110e5f;stroke-width:1.08140431;stroke-miterlimit:4;stroke-dasharray:none;stroke-opacity:1">
		<path
   class="st0"
   d="M 69.5,82.3 H 32.1 L 13.4,49.9 32.1,17.5 h 37.4 l 18.7,32.4 z m -35.7,-3 h 33.9 l 17,-29.4 -17,-29.4 H 33.8 l -17,29.4 z"
   id="path4"
   style="fill:#110e5f;fill-opacity:1;stroke:#110e5f;stroke-width:1.08140431;stroke-miterlimit:4;stroke-dasharray:none;stroke-opacity:1"
   inkscape:connector-curvature="0" />
	</g>
	<g
   id="g10"
   style="fill:#110e5f;fill-opacity:1;stroke:#110e5f;stroke-width:1.08140431;stroke-miterlimit:4;stroke-dasharray:none;stroke-opacity:1">
		<path
   class="st0"
   d="m 49,63.5 c -0.1,0 -0.2,0 -0.3,0 -0.8,-0.2 -1.3,-1 -1.2,-1.8 l 5,-24 c 0.2,-0.8 1,-1.3 1.8,-1.2 0.8,0.2 1.3,1 1.2,1.8 l -5,24 C 50.3,63 49.7,63.5 49,63.5 Z"
   id="path8"
   style="fill:#110e5f;fill-opacity:1;stroke:#110e5f;stroke-width:1.08140431;stroke-miterlimit:4;stroke-dasharray:none;stroke-opacity:1"
   inkscape:connector-curvature="0" />
	</g>
	<g
   id="g14"
   style="fill:#110e5f;fill-opacity:1;stroke:#110e5f;stroke-width:1.08140431;stroke-miterlimit:4;stroke-dasharray:none;stroke-opacity:1">
		<path
   class="st0"
   d="m 40,60.5 c -0.4,0 -0.8,-0.1 -1.1,-0.4 l -9,-9 c -0.6,-0.6 -0.6,-1.5 0,-2.1 l 9,-9 c 0.6,-0.6 1.5,-0.6 2.1,0 0.6,0.6 0.6,1.5 0,2.1 L 33.1,50 41,57.9 c 0.6,0.6 0.6,1.5 0,2.1 -0.2,0.4 -0.6,0.5 -1,0.5 z"
   id="path12"
   style="fill:#110e5f;fill-opacity:1;stroke:#110e5f;stroke-width:1.08140431;stroke-miterlimit:4;stroke-dasharray:none;stroke-opacity:1"
   inkscape:connector-curvature="0" />
	</g>
	<g
   id="g18"
   style="fill:#110e5f;fill-opacity:1;stroke:#110e5f;stroke-width:1.08140431;stroke-miterlimit:4;stroke-dasharray:none;stroke-opacity:1">
		<path
   class="st0"
   d="m 63,60.5 c -0.4,0 -0.8,-0.1 -1.1,-0.4 -0.6,-0.6 -0.6,-1.5 0,-2.1 l 7.9,-7.9 -7.9,-7.9 c -0.6,-0.6 -0.6,-1.5 0,-2.1 0.6,-0.6 1.5,-0.6 2.1,0 l 9,9 c 0.6,0.6 0.6,1.5 0,2.1 l -9,9 c -0.2,0.2 -0.6,0.3 -1,0.3 z"
   id="path16"
   style="fill:#110e5f;fill-opacity:1;stroke:#110e5f;stroke-width:1.08140431;stroke-miterlimit:4;stroke-dasharray:none;stroke-opacity:1"
   inkscape:connector-curvature="0" />
	</g>
</g>
</svg>