<?xml version="1.0" encoding="UTF-8" standalone="no"?>
<svg
   xmlns:dc="http://purl.org/dc/elements/1.1/"
   xmlns:cc="http://creativecommons.org/ns#"
   xmlns:rdf="http://www.w3.org/1999/02/22-rdf-syntax-ns#"
   xmlns:svg="http://www.w3.org/2000/svg"
   xmlns="http://www.w3.org/2000/svg"
   xmlns:sodipodi="http://sodipodi.sourceforge.net/DTD/sodipodi-0.dtd"
   xmlns:inkscape="http://www.inkscape.org/namespaces/inkscape"
   width="50px"
   height="46px"
   viewBox="0 0 50 46"
   version="1.1"
   id="svg21"
   sodipodi:docname="judgeme.svg"
   inkscape:version="0.92.3 (2405546, 2018-03-11)">
  <metadata
     id="metadata25">
    <rdf:RDF>
      <cc:Work
         rdf:about="">
        <dc:format>image/svg+xml</dc:format>
        <dc:type
           rdf:resource="http://purl.org/dc/dcmitype/StillImage" />
      </cc:Work>
    </rdf:RDF>
  </metadata>
  <sodipodi:namedview
     pagecolor="#ffffff"
     bordercolor="#666666"
     borderopacity="1"
     objecttolerance="10"
     gridtolerance="10"
     guidetolerance="10"
     inkscape:pageopacity="0"
     inkscape:pageshadow="2"
     inkscape:window-width="1366"
     inkscape:window-height="676"
     id="namedview23"
     showgrid="false"
     inkscape:zoom="5.1304348"
     inkscape:cx="2.2923729"
     inkscape:cy="23"
     inkscape:window-x="0"
     inkscape:window-y="27"
     inkscape:window-maximized="1"
     inkscape:current-layer="svg21" />
  <!-- Generator: Sketch 50.2 (55047) - http://www.bohemiancoding.com/sketch -->
  <title
     id="title2">header_asset_answers</title>
  <desc
     id="desc4">Created with Sketch.</desc>
  <defs
     id="defs6" />
  <g
     id="Grid"
     stroke="none"
     stroke-width="1"
     fill="none"
     fill-rule="evenodd"
     style="fill:#110e5f;fill-opacity:1;opacity:0.98">
    <g
       id="header_asset_answers"
       fill-rule="nonzero"
       style="fill:#110e5f;fill-opacity:1">
      <g
         id="Group"
         fill="#8CC63E"
         style="fill:#110e5f;fill-opacity:1">
        <path
           d="M4.68488307,32.7295746 C4.55337758,32.7295746 4.42187209,32.7295746 4.2903666,32.5992747 C3.89585013,32.4689747 3.63283915,31.947775 3.76434464,31.5568753 L4.68488307,24.7812791 L4.2903666,24.7812791 C2.05477328,24.7812791 0.213696421,22.9570802 0.213696421,20.7419814 L0.213696421,4.06359091 C0.213696421,1.84849217 2.05477328,0.0242932065 4.2903666,0.0242932065 L22.8326407,0.0242932065 C25.068234,0.0242932065 26.9093108,1.84849217 26.9093108,4.06359091 L26.9093108,13.1845857 L24.9367285,13.1845857 L24.9367285,4.06359091 C24.9367285,2.89089157 24.0161901,1.97879209 22.8326407,1.97879209 L4.2903666,1.97879209 C3.10681719,1.97879209 2.18627877,3.0211915 2.18627877,4.06359091 L2.18627877,20.7419814 C2.18627877,21.9146807 3.10681719,22.8267802 4.2903666,22.8267802 L5.86843248,22.8267802 C6.13144346,22.8267802 6.39445444,22.9570802 6.65746542,23.21768 C6.9204764,23.4782799 6.9204764,23.7388797 6.9204764,23.9994796 L6.13144346,28.8205768 L11.391663,23.21768 C11.5231685,22.9570802 11.7861795,22.9570802 12.0491905,22.9570802 L19.6765089,22.9570802 L19.6765089,24.911579 L12.5752125,24.911579 L5.47391601,32.4689747 C5.21090503,32.5992747 4.94789405,32.7295746 4.68488307,32.7295746 Z"
           id="Shape"
           style="fill:#110e5f;fill-opacity:1" />
        <path
           d="M13.6272564,16.181484 C13.1012344,16.181484 12.5752125,15.7905842 12.5752125,15.1390846 C12.5752125,13.0542858 13.4957509,12.2724862 14.2847838,11.6209866 C14.9423113,11.0997869 15.4683332,10.7088871 15.4683332,9.14528801 C15.4683332,8.49378838 15.2053223,7.97258868 14.5477948,7.71198883 C13.7587619,7.45138898 12.5752125,7.5816889 12.0491905,8.10288861 C11.917685,8.23318853 11.5231685,8.62408831 11.7861795,9.53618779 C12.0491905,10.0573875 11.7861795,10.5785872 11.2601576,10.839187 C10.7341356,10.969487 10.2081136,10.7088871 9.94510266,10.1876874 C9.4190807,8.88468816 9.68209168,7.5816889 10.7341356,6.66958942 C11.917685,5.62719002 13.7587619,5.36659017 15.3368277,6.01808979 C16.6518826,6.5392895 17.4409156,7.84228876 17.4409156,9.27558794 C17.4409156,11.7512865 16.3888717,12.5330861 15.5998387,13.1845857 C14.9423113,13.7057854 14.5477948,13.9663853 14.5477948,15.1390846 C14.5477948,15.7905842 14.1532783,16.181484 13.6272564,16.181484 Z"
           id="path9"
           style="fill:#110e5f;fill-opacity:1" />
        <ellipse
           id="Oval"
           cx="13.6272564"
           cy="18.5268827"
           rx="1.3150549"
           ry="1.30299926"
           style="fill:#110e5f;fill-opacity:1" />
      </g>
      <g
         id="g17"
         transform="translate(18.877551, 12.768131)"
         fill="#0096B2"
         style="fill:#110e5f;fill-opacity:1">
        <path
           d="M26.321958,32.6356868 C26.0552641,32.6356868 25.7885701,32.5055587 25.6552232,32.3754306 L18.4544867,24.8280007 L4.18636087,24.8280007 C1.91946236,24.8280007 0.0526047683,23.0062073 0.0526047683,20.7940295 L0.0526047683,4.13763252 C0.0526047683,1.92545479 1.91946236,0.103661369 4.18636087,0.103661369 L26.7219989,0.103661369 C28.9888974,0.103661369 30.855755,1.92545479 30.855755,4.13763252 L30.855755,20.7940295 C30.855755,23.0062073 28.9888974,24.8280007 26.7219989,24.8280007 L26.321958,24.8280007 L27.2553868,31.594662 C27.2553868,31.9850463 27.1220399,32.3754306 26.7219989,32.6356868 C26.588652,32.6356868 26.455305,32.6356868 26.321958,32.6356868 Z M4.18636087,2.0555829 C2.98623813,2.0555829 2.05280933,2.96647961 2.05280933,4.13763252 L2.05280933,20.7940295 C2.05280933,21.9651825 2.98623813,22.8760792 4.18636087,22.8760792 L18.7211807,22.8760792 C18.9878746,22.8760792 19.2545686,23.0062073 19.3879155,23.1363354 L24.7217944,28.7318438 L24.0550595,23.917104 C24.0550595,23.6568478 24.0550595,23.3965916 24.3217535,23.1363354 C24.5884474,22.8760792 24.7217944,22.7459511 25.1218353,22.7459511 L26.7219989,22.7459511 C27.9221217,22.7459511 28.8555505,21.8350544 28.8555505,20.6639014 L28.8555505,4.13763252 C28.8555505,2.96647961 27.9221217,2.0555829 26.7219989,2.0555829 L4.18636087,2.0555829 Z"
           id="path13"
           style="fill:#110e5f;fill-opacity:1" />
        <path
           d="M20.5880383,17.4106989 L16.4542822,6.34981025 C16.3209352,5.95942595 15.9208943,5.69916974 15.5208534,5.69916974 C15.5208534,5.69916974 15.5208534,5.69916974 15.5208534,5.69916974 C15.1208125,5.69916974 14.7207716,5.95942595 14.5874246,6.34981025 L10.3203215,17.4106989 C10.1869746,17.9312113 10.4536685,18.4517237 10.8537094,18.7119799 C10.9870564,18.7119799 11.1204034,18.7119799 11.2537503,18.7119799 C11.6537912,18.7119799 12.0538321,18.4517237 12.1871791,18.0613394 L13.6539958,14.2876245 L17.254364,14.2876245 L18.7211807,18.0613394 C18.8545277,18.5818518 19.5212625,18.842108 20.0546504,18.5818518 C20.5880383,18.4517237 20.8547322,17.9312113 20.5880383,17.4106989 Z M14.4540776,12.3357029 L15.5208534,9.47288469 L16.5876292,12.3357029 L14.4540776,12.3357029 Z"
           id="path15"
           style="fill:#110e5f;fill-opacity:1" />
      </g>
    </g>
  </g>
</svg>
