<?xml version="1.0" encoding="UTF-8" standalone="no"?>
<!-- Generator: Adobe Illustrator 19.0.0, SVG Export Plug-In . SVG Version: 6.00 Build 0)  -->

<svg
   xmlns:dc="http://purl.org/dc/elements/1.1/"
   xmlns:cc="http://creativecommons.org/ns#"
   xmlns:rdf="http://www.w3.org/1999/02/22-rdf-syntax-ns#"
   xmlns:svg="http://www.w3.org/2000/svg"
   xmlns="http://www.w3.org/2000/svg"
   xmlns:sodipodi="http://sodipodi.sourceforge.net/DTD/sodipodi-0.dtd"
   xmlns:inkscape="http://www.inkscape.org/namespaces/inkscape"
   version="1.1"
   id="Capa_1"
   x="0px"
   y="0px"
   viewBox="0 0 419 555"
   xml:space="preserve"
   width="419"
   height="555"
   sodipodi:docname="pencil-case.svg"
   inkscape:version="0.92.4 (f8dce91, 2019-08-02)"><metadata
   id="metadata55"><rdf:RDF><cc:Work
       rdf:about=""><dc:format>image/svg+xml</dc:format><dc:type
         rdf:resource="http://purl.org/dc/dcmitype/StillImage" /><dc:title></dc:title></cc:Work></rdf:RDF></metadata><defs
   id="defs53" /><sodipodi:namedview
   pagecolor="#ffffff"
   bordercolor="#666666"
   borderopacity="1"
   objecttolerance="10"
   gridtolerance="10"
   guidetolerance="10"
   inkscape:pageopacity="0"
   inkscape:pageshadow="2"
   inkscape:window-width="1600"
   inkscape:window-height="796"
   id="namedview51"
   showgrid="false"
   fit-margin-top="-0.2"
   fit-margin-bottom="-0.4"
   inkscape:zoom="0.4609375"
   inkscape:cx="256"
   inkscape:cy="256"
   inkscape:window-x="0"
   inkscape:window-y="27"
   inkscape:window-maximized="1"
   inkscape:current-layer="Capa_1" />
<g
   id="g6"
   transform="translate(0,43)"
   style="fill:#110e5f;fill-opacity:1">
	<g
   id="g4"
   style="fill:#110e5f;fill-opacity:1">
		<path
   d="m 146.798,286 c -5.52,0 -10,4.48 -10,10 0,5.52 4.48,10 10,10 5.52,0 10,-4.48 10,-10 0,-5.52 -4.48,-10 -10,-10 z"
   id="path2"
   inkscape:connector-curvature="0"
   style="fill:#110e5f;fill-opacity:1" />
	</g>
</g>
<g
   id="g12"
   transform="translate(0,43)"
   style="fill:#110e5f;fill-opacity:1">
	<g
   id="g10"
   style="fill:#110e5f;fill-opacity:1">
		<path
   d="m 146.798,326 c -5.523,0 -10,4.477 -10,10 v 126 c 0,5.523 4.477,10 10,10 5.523,0 10,-4.477 10,-10 V 336 c 0,-5.523 -4.478,-10 -10,-10 z"
   id="path8"
   inkscape:connector-curvature="0"
   style="fill:#110e5f;fill-opacity:1" />
	</g>
</g>
<g
   id="g18"
   style="fill:#110e5f;fill-opacity:1"
   transform="translate(-45.559322,23.474576)">
	<g
   id="g16"
   style="fill:#110e5f;fill-opacity:1">
		<path
   d="m 424.194,7.516 c -0.824,-3.215 -3.19,-5.812 -6.314,-6.931 -3.125,-1.118 -6.601,-0.615 -9.278,1.345 -9.993,7.315 -60.255,44.942 -68.442,67.424 -4.867,13.391 -3.761,28.008 2.773,40.39 -12.26,17.586 -24.959,41.868 -36.135,65.593 V 10 c 0,-5.523 -4.478,-10 -10,-10 h -80 c -5.523,0 -10,4.477 -10,10 v 196 h -1.795 l -17.08,-66.449 c -0.008,-0.033 -0.017,-0.066 -0.026,-0.099 l -15.53,-57.95 c -10e-4,-0.002 -10e-4,-0.004 -0.002,-0.006 -0.09,-0.333 -0.199,-0.661 -0.323,-0.984 -0.038,-0.099 -0.084,-0.194 -0.125,-0.292 -0.094,-0.225 -0.192,-0.447 -0.303,-0.665 -0.054,-0.106 -0.113,-0.208 -0.171,-0.312 -0.113,-0.205 -0.232,-0.407 -0.36,-0.604 -0.065,-0.099 -0.132,-0.196 -0.2,-0.293 -0.137,-0.195 -0.281,-0.384 -0.432,-0.57 -0.042,-0.051 -0.076,-0.107 -0.119,-0.157 l -59.34,-69.92 c -2.484,-2.927 -6.424,-4.173 -10.139,-3.208 -3.715,0.965 -6.55,3.972 -7.295,7.738 l -17.93,90.62 c -0.013,0.067 -0.016,0.135 -0.028,0.201 -0.046,0.261 -0.084,0.522 -0.109,0.784 -0.011,0.111 -0.018,0.222 -0.025,0.333 -0.015,0.25 -0.021,0.498 -0.018,0.747 0.001,0.116 0.002,0.232 0.008,0.348 0.012,0.255 0.037,0.508 0.069,0.761 0.013,0.104 0.021,0.207 0.037,0.31 0.055,0.353 0.125,0.702 0.217,1.047 l 15.512,57.892 10.406,41.166 c -6.07,1.035 -11.665,3.905 -16.11,8.35 -5.667,5.668 -8.789,13.201 -8.789,21.211 0,13.036 8.361,24.152 20,28.28 V 462 c 0,27.57 22.43,50 50,50 h 200 c 27.57,0 50,-22.43 50,-50 V 264.296 c 4.168,-1.471 7.991,-3.866 11.211,-7.085 5.668,-5.668 8.789,-13.201 8.789,-21.211 0,-14.612 -10.504,-26.811 -24.356,-29.46 6.523,-26.504 11.121,-52.843 12.818,-73.509 13.35,-5.163 23.88,-15.762 28.875,-29.48 8.203,-22.526 -6.841,-83.95 -9.941,-96.035 z m -67.955,118.239 c 4.135,3.253 8.78,5.852 13.808,7.682 4.806,1.749 9.801,2.741 14.824,2.971 -2.005,19.938 -6.599,44.761 -12.911,69.592 h -57.164 c 15.271,-34.604 29.376,-61.908 41.443,-80.245 z M 226.798,20 h 60 v 23 h -20 c -5.522,0 -10,4.477 -10,10 0,5.523 4.478,10 10,10 h 20 v 20 h -20 c -5.522,0 -10,4.477 -10,10 0,5.523 4.478,10 10,10 h 20 v 20 h -20 c -5.522,0 -10,4.477 -10,10 0,5.523 4.478,10 10,10 h 20 v 20 h -20 c -5.522,0 -10,4.477 -10,10 0,5.523 4.478,10 10,10 h 20 v 23 h -60 z m -117.644,16.443 41.027,48.342 c -6.167,7.791 -14.635,13.379 -24.41,15.997 -9.737,2.609 -19.822,2.017 -29.028,-1.61 z m -9.023,84.551 c 4.43,0.928 8.942,1.403 13.479,1.403 5.781,0 11.602,-0.76 17.336,-2.296 10.238,-2.742 19.46,-7.778 27.134,-14.647 l 10.486,39.127 15.787,61.419 h -62.139 l -11.552,-45.701 c -0.011,-0.046 -0.023,-0.092 -0.036,-0.137 z M 376.798,462 c 0,16.542 -13.458,30 -30,30 h -200 c -16.542,0 -30,-13.458 -30,-30 V 266 h 260 z m 20,-226 c 0,2.668 -1.041,5.179 -2.931,7.068 -1.891,1.891 -4.401,2.932 -7.069,2.932 h -280 c -5.514,0 -10,-4.486 -10,-10 0,-2.668 1.041,-5.179 2.931,-7.068 1.891,-1.891 4.401,-2.932 7.069,-2.932 h 90.385 c 0.02,0 0.039,0.002 0.058,0.002 0.013,0 0.026,-0.002 0.039,-0.002 h 102.224 c 0.016,0 0.033,0.002 0.049,0.002 0.011,0 0.022,-0.002 0.034,-0.002 h 80.07 c 0.012,0 0.025,0.002 0.037,0.002 0.02,0 0.039,-0.002 0.059,-0.002 h 7.046 c 5.512,0 9.999,4.486 9.999,10 z M 415.341,96.709 c -3.529,9.692 -11.659,16.809 -21.771,19.041 -5.533,1.234 -11.301,0.851 -16.682,-1.106 -5.575,-2.03 -10.374,-5.62 -13.876,-10.379 -10e-4,-0.002 -0.003,-0.004 -0.004,-0.006 -5.978,-8.113 -7.492,-18.607 -4.055,-28.066 3.748,-10.292 28.141,-32.238 49.371,-48.931 5.84,26.538 10.758,59.174 7.017,69.447 z"
   id="path14"
   style="fill:#110e5f;fill-opacity:1"
   inkscape:connector-curvature="0" />
	</g>
</g>
<g
   id="g20"
   transform="translate(0,43)"
   style="fill:#110e5f;fill-opacity:1">
</g>
<g
   id="g22"
   transform="translate(0,43)"
   style="fill:#110e5f;fill-opacity:1">
</g>
<g
   id="g24"
   transform="translate(0,43)"
   style="fill:#110e5f;fill-opacity:1">
</g>
<g
   id="g26"
   transform="translate(0,43)"
   style="fill:#110e5f;fill-opacity:1">
</g>
<g
   id="g28"
   transform="translate(0,43)"
   style="fill:#110e5f;fill-opacity:1">
</g>
<g
   id="g30"
   transform="translate(0,43)"
   style="fill:#110e5f;fill-opacity:1">
</g>
<g
   id="g32"
   transform="translate(0,43)"
   style="fill:#110e5f;fill-opacity:1">
</g>
<g
   id="g34"
   transform="translate(0,43)"
   style="fill:#110e5f;fill-opacity:1">
</g>
<g
   id="g36"
   transform="translate(0,43)"
   style="fill:#110e5f;fill-opacity:1">
</g>
<g
   id="g38"
   transform="translate(0,43)"
   style="fill:#110e5f;fill-opacity:1">
</g>
<g
   id="g40"
   transform="translate(0,43)"
   style="fill:#110e5f;fill-opacity:1">
</g>
<g
   id="g42"
   transform="translate(0,43)"
   style="fill:#110e5f;fill-opacity:1">
</g>
<g
   id="g44"
   transform="translate(0,43)"
   style="fill:#110e5f;fill-opacity:1">
</g>
<g
   id="g46"
   transform="translate(0,43)"
   style="fill:#110e5f;fill-opacity:1">
</g>
<g
   id="g48"
   transform="translate(0,43)"
   style="fill:#110e5f;fill-opacity:1">
</g>
</svg>