<?xml version="1.0" encoding="UTF-8" standalone="no"?>
<!-- Created with Sodipodi ("http://www.sodipodi.com/") -->

<svg
   xmlns:dc="http://purl.org/dc/elements/1.1/"
   xmlns:cc="http://creativecommons.org/ns#"
   xmlns:rdf="http://www.w3.org/1999/02/22-rdf-syntax-ns#"
   xmlns:svg="http://www.w3.org/2000/svg"
   xmlns="http://www.w3.org/2000/svg"
   xmlns:xlink="http://www.w3.org/1999/xlink"
   xmlns:sodipodi="http://sodipodi.sourceforge.net/DTD/sodipodi-0.dtd"
   xmlns:inkscape="http://www.inkscape.org/namespaces/inkscape"
   id="svg1"
   viewBox="0 0 753.76642 575.69873"
   version="1.0"
   y="0"
   x="0"
   inkscape:version="0.92.3 (2405546, 2018-03-11)"
   sodipodi:docname="pencildoodle.svg"
   width="753.76642"
   height="575.69873">
  <sodipodi:namedview
     pagecolor="#ffffff"
     bordercolor="#666666"
     borderopacity="1"
     objecttolerance="10"
     gridtolerance="10"
     guidetolerance="10"
     inkscape:pageopacity="0"
     inkscape:pageshadow="2"
     inkscape:window-width="1366"
     inkscape:window-height="667"
     id="namedview10904"
     showgrid="false"
     fit-margin-top="0"
     fit-margin-left="0"
     fit-margin-right="0"
     fit-margin-bottom="0"
     inkscape:zoom="0.59094932"
     inkscape:cx="198.11755"
     inkscape:cy="332.01409"
     inkscape:window-x="0"
     inkscape:window-y="27"
     inkscape:window-maximized="1"
     inkscape:current-layer="svg1" />
  <defs
     id="defs3">
    <linearGradient
       id="linearGradient602"
       y2="384.37326"
       y1="343.0159"
       x2="108.29572"
       x1="74.47731"
       gradientTransform="matrix(0.99000515,0,0,1.0100958,98.117984,-69.400526)"
       gradientUnits="userSpaceOnUse"
       xlink:href="#linearGradient645">
      <stop
         id="stop849"
         style="stop-color:#ffff00"
         offset="0" />
      <stop
         id="stop850"
         style="stop-color:#2d0032"
         offset="1" />
    </linearGradient>
    <linearGradient
       id="linearGradient645"
       y2="220.19055"
       y1="220.19055"
       x1="32.198421"
       gradientTransform="matrix(0.99641235,0,0,1.0036006,98.117984,-69.400526)"
       x2="222.65182"
       gradientUnits="userSpaceOnUse">
      <stop
         id="stop54"
         style="stop-color:#faff00"
         offset="0" />
      <stop
         id="stop55"
         style="stop-color:#eeff00"
         offset="1" />
    </linearGradient>
  </defs>
  <path
     id="path637"
     style="fill:#110e43;fill-opacity:1;fill-rule:evenodd;stroke:#110e5f;stroke-width:5;stroke-opacity:1"
     d="m 3.5422,556.06411 c 0,0 -6.28975,-24.99884 11.99725,-39.06884 18.288,-14.07 58.97107,20.35196 58.97107,24.57196 0,4.22 27.50768,8.86688 41.56768,-9.42312 14.07,-18.29 -33.757,-122.39 -2.81,-116.76 30.95,5.63 53.46,57.68 97.07,84.41 43.61,26.72 104.1,1.4 92.84,-23.92 -11.25,-25.32 -150.52,-102.69 -122.38,-143.49 28.13,-40.79 203.97,46.42 199.75,61.9 -4.22,15.47 -18.28,-8.44 -21.1,-8.44 -2.81,0 -147.91343,-47.32783 -152.13343,-37.48783 -4.22,9.85 40.68227,63.77974 116.96343,109.22783 14.07,23.92 4.71096,61.18439 -20.60904,69.62439 -25.32,7.04 -103.18096,41.51561 -151.01096,-47.11439 -47.83,-88.62 19.69,61.9 1.41,77.37 -18.29,15.48 -98.33064,25.6828 -99.74064,0.3628 -1.403,-25.33 -52.19136,2.4572 -50.78536,-1.7628 z"
     inkscape:connector-curvature="0"
     sodipodi:nodetypes="ccsccccccsccccccc" />
  <path
     id="path630"
     style="fill:#ffffff;fill-rule:evenodd"
     d="m 753.76644,17.491896 c -69.5,28.648 -106.06,80.649 -118.75,95.359004 23.37,-20.990004 61.63,-64.264004 118.75,-95.359004 z"
     inkscape:connector-curvature="0" />
  <path
     id="path636"
     style="fill:none;stroke:#000000;stroke-width:1.42429996"
     d="m 550.15644,276.82089 -58.79,-39.01"
     inkscape:connector-curvature="0" />
  <path
     id="path640"
     style="fill:#110e5f;fill-opacity:0.21890548;fill-rule:evenodd;stroke:#110e5f;stroke-width:11.82499981;stroke-opacity:1"
     d="m 383.62744,392.50089 c 28.256,-10.07 176.68,-56.2 176.13,-63.53 -0.56,-7.32 5.88,-77.39 1.93,-78.49 -3.95,-1.1 -62.79,-37.18 -62.79,-37.18 l -67.368,4.57 -47.901,174.63 z"
     inkscape:connector-curvature="0" />
  <path
     id="path641"
     style="fill:#4145cb;fill-opacity:0.95024878;fill-rule:evenodd;stroke:#110e5f;stroke-width:8.90190029;stroke-linejoin:round;stroke-opacity:1"
     d="m 429.55144,217.37089 c 224.48,-208.509994 223.88,-212.919994 223.88,-212.919994 0,0 29.5,2.973 36.56,11.372 7.05,8.398 -192.4,228.789994 -204.31,222.579994 -11.91,-6.22 -53.946,-18.71 -56.135,-21.03 z"
     inkscape:connector-curvature="0" />
  <path
     id="path642"
     style="fill:#4145cb;fill-rule:evenodd;stroke:#110e5f;stroke-width:8.90190029;stroke-linejoin:round;stroke-opacity:1;fill-opacity:0.95024878"
     d="m 487.39644,239.28089 c 0,0 28.74,29.33 49.89,46.26 13.36,-11.67 189.87,-225.239994 190.59,-235.479994 l -40.92,-37.004 -199.56,226.219994 z"
     inkscape:connector-curvature="0" />
  <path
     id="path643"
     style="fill:#4145cb;fill-opacity:0.95024878;fill-rule:evenodd;stroke:#110e5f;stroke-width:8.90190029;stroke-linejoin:round;stroke-opacity:1"
     d="m 537.38644,286.34089 21.14,48.65 190.58,-248.219994 -20.92,-36.084 -190.8,235.649994 z"
     inkscape:connector-curvature="0" />
  <path
     id="path644"
     style="fill:#110e45;fill-opacity:1;fill-rule:evenodd;stroke:#110e5f;stroke-width:11.89900017;stroke-linejoin:round;stroke-opacity:1"
     d="m 385.45344,392.24089 c 25.88,-14.75 67.193,-15.9 86.983,-35.74 -7.99,-20.08 -30.133,-50.66 -56.929,-53.25 -7.99,23.41 -28.459,53.39 -30.054,88.99 z"
     inkscape:connector-curvature="0" />
  <metadata
     id="metadata10902">
    <rdf:RDF>
      <cc:Work>
        <dc:format>image/svg+xml</dc:format>
        <dc:type
           rdf:resource="http://purl.org/dc/dcmitype/StillImage" />
        <cc:license
           rdf:resource="http://creativecommons.org/publicdomain/zero/1.0/" />
        <dc:publisher>
          <cc:Agent
             rdf:about="http://openclipart.org/">
            <dc:title>Openclipart</dc:title>
          </cc:Agent>
        </dc:publisher>
        <dc:title>knotes2</dc:title>
        <dc:date>2011-01-21T16:58:49</dc:date>
        <dc:description>Originally uploaded by Jose Hevia for OCAL 0.18</dc:description>
        <dc:source>https://openclipart.org/detail/107905/knotes2-by-anonymous</dc:source>
        <dc:creator>
          <cc:Agent>
            <dc:title>Anonymous</dc:title>
          </cc:Agent>
        </dc:creator>
        <dc:subject>
          <rdf:Bag>
            <rdf:li>fix</rdf:li>
            <rdf:li>keyword</rdf:li>
            <rdf:li>librarians</rdf:li>
            <rdf:li>tag</rdf:li>
          </rdf:Bag>
        </dc:subject>
      </cc:Work>
      <cc:License
         rdf:about="http://creativecommons.org/publicdomain/zero/1.0/">
        <cc:permits
           rdf:resource="http://creativecommons.org/ns#Reproduction" />
        <cc:permits
           rdf:resource="http://creativecommons.org/ns#Distribution" />
        <cc:permits
           rdf:resource="http://creativecommons.org/ns#DerivativeWorks" />
      </cc:License>
    </rdf:RDF>
  </metadata>
</svg>
