<?xml version="1.0" encoding="UTF-8" standalone="no"?>
<svg
   xmlns:dc="http://purl.org/dc/elements/1.1/"
   xmlns:cc="http://creativecommons.org/ns#"
   xmlns:rdf="http://www.w3.org/1999/02/22-rdf-syntax-ns#"
   xmlns:svg="http://www.w3.org/2000/svg"
   xmlns="http://www.w3.org/2000/svg"
   xmlns:xlink="http://www.w3.org/1999/xlink"
   xmlns:sodipodi="http://sodipodi.sourceforge.net/DTD/sodipodi-0.dtd"
   xmlns:inkscape="http://www.inkscape.org/namespaces/inkscape"
   id="processors"
   viewBox="0 0 64.454223 69.124306"
   version="1.1"
   sodipodi:docname="processor.svg"
   width="64.454224"
   height="69.124306"
   inkscape:version="0.92.3 (2405546, 2018-03-11)">
  <metadata
     id="metadata74">
    <rdf:RDF>
      <cc:Work
         rdf:about="">
        <dc:format>image/svg+xml</dc:format>
        <dc:type
           rdf:resource="http://purl.org/dc/dcmitype/StillImage" />
        <dc:title>icon-processor</dc:title>
      </cc:Work>
    </rdf:RDF>
  </metadata>
  <sodipodi:namedview
     pagecolor="#ffffff"
     bordercolor="#666666"
     borderopacity="1"
     objecttolerance="10"
     gridtolerance="10"
     guidetolerance="10"
     inkscape:pageopacity="0"
     inkscape:pageshadow="2"
     inkscape:window-width="1366"
     inkscape:window-height="667"
     id="namedview72"
     showgrid="false"
     fit-margin-top="0"
     fit-margin-left="0"
     fit-margin-right="0"
     fit-margin-bottom="0"
     inkscape:zoom="2.95"
     inkscape:cx="31.210292"
     inkscape:cy="35.254274"
     inkscape:window-x="0"
     inkscape:window-y="27"
     inkscape:window-maximized="1"
     inkscape:current-layer="processors" />
  <defs
     id="defs13">
    <style
       id="style2">.cls-1{fill:#636466;}.cls-2{fill:#fff;}.cls-3{fill:url(#linear-gradient);}.cls-4{fill:url(#linear-gradient-2);}.cls-5{fill:url(#linear-gradient-3);}.cls-6{fill:url(#linear-gradient-4);}.cls-7{fill:url(#linear-gradient-5);}</style>
    <linearGradient
       id="linear-gradient"
       x1="61.330002"
       y1="80"
       x2="61.330002"
       y2="69.889999"
       gradientUnits="userSpaceOnUse">
      <stop
         offset="0"
         stop-color="#fff"
         stop-opacity="0"
         id="stop4" />
      <stop
         offset="1"
         stop-color="#bcbec0"
         id="stop6" />
    </linearGradient>
    <linearGradient
       id="linear-gradient-2"
       x1="53.669998"
       x2="53.669998"
       y2="69.889999"
       xlink:href="#linear-gradient"
       gradientTransform="matrix(1.0325839,0,0,0.93575527,-15.271614,-5.7361494)" />
    <linearGradient
       id="linear-gradient-3"
       x1="46"
       x2="46"
       y2="69.889999"
       xlink:href="#linear-gradient"
       gradientTransform="matrix(1.0325839,0,0,0.93575527,-15.271614,-5.7361494)" />
    <linearGradient
       id="linear-gradient-4"
       x1="38.34"
       x2="38.34"
       y2="69.889999"
       xlink:href="#linear-gradient"
       gradientTransform="matrix(1.0325839,0,0,0.93575527,-15.271614,-5.7361494)" />
    <linearGradient
       id="linear-gradient-5"
       x1="30.67"
       x2="30.67"
       y2="69.889999"
       xlink:href="#linear-gradient"
       gradientTransform="matrix(1.0325839,0,0,0.93575527,-15.271614,-5.7361494)" />
    <linearGradient
       inkscape:collect="always"
       xlink:href="#linear-gradient"
       id="linearGradient881"
       gradientUnits="userSpaceOnUse"
       x1="61.330002"
       y1="80"
       x2="61.330002"
       y2="69.889999"
       gradientTransform="matrix(1.0325839,0,0,0.93575527,-15.271614,-5.7361494)" />
  </defs>
  <title
     id="title15">icon-processor</title>
  <path
     class="cls-1"
     d="M 17.998239,1.4410935 A 1.6005051,1.4504207 0 0 0 16.397734,3.0381757e-5 v 0 A 1.5901792,1.4410631 0 0 0 14.807555,1.4410935 v 6.5502869 a 1.5901792,1.4410631 0 0 0 1.590179,1.4504202 v 0 a 1.6005051,1.4504207 0 0 0 1.600505,-1.4504202 z"
     id="path17"
     style="fill:#110e5f;fill-opacity:1;stroke-width:0.98297805"
     inkscape:connector-curvature="0" />
  <path
     class="cls-1"
     d="M 25.907832,1.4410935 A 1.5901792,1.4410631 0 0 0 24.317653,3.0381757e-5 v 0 A 1.5901792,1.4410631 0 0 0 22.717148,1.4410935 v 6.5502869 a 1.5901792,1.4410631 0 0 0 1.600505,1.4504202 v 0 a 1.5901792,1.4410631 0 0 0 1.590179,-1.4504202 z"
     id="path19"
     style="fill:#110e5f;fill-opacity:1;stroke-width:0.98297805"
     inkscape:connector-curvature="0" />
  <path
     class="cls-1"
     d="M 33.817425,1.4410935 A 1.5901792,1.4410631 0 0 0 32.227245,3.0381757e-5 v 0 A 1.5901792,1.4410631 0 0 0 30.637066,1.4410935 v 6.5502869 a 1.5901792,1.4410631 0 0 0 1.590179,1.4691353 v 0 a 1.5901792,1.4410631 0 0 0 1.59018,-1.4504202 z"
     id="path21"
     style="fill:#110e5f;fill-opacity:1;stroke-width:0.98297805"
     inkscape:connector-curvature="0" />
  <path
     class="cls-1"
     d="M 41.737343,1.4410935 A 1.5901792,1.4410631 0 0 0 40.136838,3.0381757e-5 v 0 A 1.5901792,1.4410631 0 0 0 38.546659,1.4410935 v 6.5502869 a 1.5901792,1.4410631 0 0 0 1.590179,1.4504202 v 0 a 1.5901792,1.4410631 0 0 0 1.600505,-1.4504202 z"
     id="path23"
     style="fill:#110e5f;fill-opacity:1;stroke-width:0.98297805"
     inkscape:connector-curvature="0" />
  <path
     class="cls-1"
     d="M 49.646936,1.4410935 A 1.5901792,1.4410631 0 0 0 48.056757,3.0381757e-5 v 0 A 1.6005051,1.4504207 0 0 0 46.456252,1.4410935 v 6.5502869 a 1.6005051,1.4504207 0 0 0 1.600505,1.4504202 v 0 a 1.5901792,1.4410631 0 0 0 1.590179,-1.4504202 z"
     id="path25"
     style="fill:#110e5f;fill-opacity:1;stroke-width:0.98297805"
     inkscape:connector-curvature="0" />
  <path
     class="cls-1"
     d="m 46.456252,56.959453 a 1.6005051,1.4504207 0 0 0 1.600505,1.450421 v 0 a 1.5901792,1.4410631 0 0 0 1.590179,-1.450421 v -6.550287 a 1.5901792,1.4410631 0 0 0 -1.590179,-1.450421 v 0 a 1.6005051,1.4504207 0 0 0 -1.600505,1.450421 z"
     id="path27"
     style="fill:#110e5f;fill-opacity:1;stroke-width:0.98297805"
     inkscape:connector-curvature="0" />
  <path
     class="cls-1"
     d="m 38.546659,56.959453 a 1.5901792,1.4410631 0 0 0 1.590179,1.450421 v 0 a 1.5901792,1.4410631 0 0 0 1.600505,-1.450421 v -6.550287 a 1.5901792,1.4410631 0 0 0 -1.600505,-1.450421 v 0 a 1.5901792,1.4410631 0 0 0 -1.590179,1.450421 z"
     id="path29"
     style="fill:#110e5f;fill-opacity:1;stroke-width:0.98297805"
     inkscape:connector-curvature="0" />
  <path
     class="cls-1"
     d="m 30.637066,56.959453 a 1.5901792,1.4410631 0 0 0 1.590179,1.450421 v 0 a 1.5901792,1.4410631 0 0 0 1.59018,-1.450421 v -6.550287 a 1.5901792,1.4410631 0 0 0 -1.59018,-1.469136 v 0 a 1.5901792,1.4410631 0 0 0 -1.590179,1.469136 z"
     id="path31"
     style="fill:#110e5f;fill-opacity:1;stroke-width:0.98297805"
     inkscape:connector-curvature="0" />
  <path
     class="cls-1"
     d="m 22.717148,56.959453 a 1.5901792,1.4410631 0 0 0 1.600505,1.450421 v 0 a 1.5901792,1.4410631 0 0 0 1.590179,-1.450421 v -6.550287 a 1.5901792,1.4410631 0 0 0 -1.590179,-1.450421 v 0 a 1.5901792,1.4410631 0 0 0 -1.600505,1.450421 z"
     id="path33"
     style="fill:#110e5f;fill-opacity:1;stroke-width:0.98297805"
     inkscape:connector-curvature="0" />
  <path
     class="cls-1"
     d="m 14.807555,56.959453 a 1.5901792,1.4410631 0 0 0 1.590179,1.450421 v 0 a 1.6005051,1.4504207 0 0 0 1.600505,-1.450421 v -6.550287 a 1.6005051,1.4504207 0 0 0 -1.600505,-1.450421 v 0 a 1.5901792,1.4410631 0 0 0 -1.590179,1.450421 z"
     id="path35"
     style="fill:#110e5f;fill-opacity:1;stroke-width:0.98297805"
     inkscape:connector-curvature="0" />
  <rect
     class="cls-1"
     x="11.079927"
     y="10.087472"
     width="41.995186"
     height="38.057163"
     rx="3.5727403"
     ry="3.2377133"
     id="rect37"
     style="fill:#110e5f;fill-opacity:1;stroke-width:0.98297805" />
  <path
     class="cls-1"
     d="m 62.86401,41.987369 a 1.5901792,1.4410631 0 0 1 1.590179,1.441063 v 0 a 1.6005051,1.4504207 0 0 1 -1.590179,1.450421 h -7.228087 a 1.6005051,1.4504207 0 0 1 -1.59018,-1.450421 v 0 a 1.5901792,1.4410631 0 0 1 1.559202,-1.441063 z"
     id="path39"
     style="fill:#110e5f;fill-opacity:1;stroke-width:0.98297805"
     inkscape:connector-curvature="0" />
  <path
     class="cls-1"
     d="m 62.86401,34.838199 a 1.5901792,1.4410631 0 0 1 1.590179,1.45042 v 0 a 1.5901792,1.4410631 0 0 1 -1.590179,1.441063 h -7.228087 a 1.5901792,1.4410631 0 0 1 -1.59018,-1.441063 v 0 a 1.5901792,1.4410631 0 0 1 1.59018,-1.45042 z"
     id="path41"
     style="fill:#110e5f;fill-opacity:1;stroke-width:0.98297805"
     inkscape:connector-curvature="0" />
  <path
     class="cls-1"
     d="m 62.86401,27.670313 a 1.5901792,1.4410631 0 0 1 1.590179,1.441063 v 0 a 1.5901792,1.4410631 0 0 1 -1.590179,1.450421 h -7.228087 a 1.5901792,1.4410631 0 0 1 -1.59018,-1.450421 v 0 a 1.5901792,1.4410631 0 0 1 1.59018,-1.441063 z"
     id="path43"
     style="fill:#110e5f;fill-opacity:1;stroke-width:0.98297805"
     inkscape:connector-curvature="0" />
  <path
     class="cls-1"
     d="m 62.86401,20.464998 a 1.6005051,1.4504207 0 0 1 1.590179,1.45042 v 0 a 1.5901792,1.4410631 0 0 1 -1.590179,1.441063 h -7.228087 a 1.5901792,1.4410631 0 0 1 -1.59018,-1.441063 v 0 a 1.6005051,1.4504207 0 0 1 1.559202,-1.45042 z"
     id="path45"
     style="fill:#110e5f;fill-opacity:1;stroke-width:0.98297805"
     inkscape:connector-curvature="0" />
  <path
     class="cls-1"
     d="m 62.86401,13.325185 a 1.5901792,1.4410631 0 0 1 1.590179,1.441063 v 0 a 1.5901792,1.4410631 0 0 1 -1.590179,1.450421 h -7.228087 a 1.5901792,1.4410631 0 0 1 -1.59018,-1.450421 v 0 a 1.5901792,1.4410631 0 0 1 1.59018,-1.441063 z"
     id="path47"
     style="fill:#110e5f;fill-opacity:1;stroke-width:0.98297805"
     inkscape:connector-curvature="0" />
  <path
     class="cls-1"
     d="M 1.5904809,16.216669 A 1.5901792,1.4410631 0 0 1 3.0176346e-4,14.766248 v 0 A 1.5901792,1.4410631 0 0 1 1.5904809,13.325185 h 7.2280874 a 1.5901792,1.4410631 0 0 1 1.5901787,1.441063 v 0 a 1.5901792,1.4410631 0 0 1 -1.5901787,1.450421 z"
     id="path49"
     style="fill:#110e5f;fill-opacity:1;stroke-width:0.98297805"
     inkscape:connector-curvature="0" />
  <path
     class="cls-1"
     d="M 1.5904809,23.384554 A 1.5901792,1.4410631 0 0 1 3.0176346e-4,21.943491 v 0 A 1.6005051,1.4504207 0 0 1 1.5904809,20.464998 h 7.2280874 a 1.6005051,1.4504207 0 0 1 1.5901787,1.45042 v 0 a 1.5901792,1.4410631 0 0 1 -1.5901787,1.441063 z"
     id="path51"
     style="fill:#110e5f;fill-opacity:1;stroke-width:0.98297805"
     inkscape:connector-curvature="0" />
  <path
     class="cls-1"
     d="M 1.5904809,30.561797 A 1.5901792,1.4410631 0 0 1 3.0176346e-4,29.111376 v 0 A 1.5901792,1.4410631 0 0 1 1.5904809,27.670313 h 7.2280874 a 1.5901792,1.4410631 0 0 1 1.5901787,1.441063 v 0 a 1.5901792,1.4410631 0 0 1 -1.5901787,1.450421 z"
     id="path53"
     style="fill:#110e5f;fill-opacity:1;stroke-width:0.98297805"
     inkscape:connector-curvature="0" />
  <path
     class="cls-1"
     d="M 1.5904809,37.729682 A 1.5901792,1.4410631 0 0 1 3.0176346e-4,36.288619 v 0 A 1.5901792,1.4410631 0 0 1 1.5904809,34.838199 h 7.2280874 a 1.5901792,1.4410631 0 0 1 1.5901787,1.45042 v 0 a 1.5901792,1.4410631 0 0 1 -1.5901787,1.441063 z"
     id="path55"
     style="fill:#110e5f;fill-opacity:1;stroke-width:0.98297805"
     inkscape:connector-curvature="0" />
  <path
     class="cls-1"
     d="M 1.5904809,44.906925 A 1.6005051,1.4504207 0 0 1 3.0176346e-4,43.456505 v 0 A 1.5901792,1.4410631 0 0 1 1.5904809,41.987369 h 7.2280874 a 1.5901792,1.4410631 0 0 1 1.5901787,1.441063 v 0 a 1.6005051,1.4504207 0 0 1 -1.5901787,1.450421 z"
     id="path57"
     style="fill:#110e5f;fill-opacity:1;stroke-width:0.98297805"
     inkscape:connector-curvature="0" />
  <rect
     class="cls-2"
     x="17.409666"
     y="16.113737"
     width="29.346035"
     height="25.995281"
     rx="8.5291433"
     ry="7.7293386"
     id="rect59"
     style="fill:#ffffff;fill-opacity:1;stroke-width:0.98297805" />
  <path
     class="cls-3"
     d="m 46.456252,61.104849 a 1.6005051,1.4504207 0 0 1 1.600505,-1.441063 v 0 a 1.5901792,1.4410631 0 0 1 1.590179,1.441063 v 6.550287 a 1.5901792,1.4410631 0 0 1 -1.590179,1.469135 v 0 a 1.6005051,1.4504207 0 0 1 -1.600505,-1.441063 z"
     id="path61"
     inkscape:connector-curvature="0"
     style="fill:url(#linearGradient881);stroke-width:0.98297805" />
  <path
     class="cls-4"
     d="m 38.546659,61.104849 a 1.5901792,1.4410631 0 0 1 1.590179,-1.441063 v 0 a 1.5901792,1.4410631 0 0 1 1.600505,1.441063 v 6.550287 a 1.5901792,1.4410631 0 0 1 -1.600505,1.469135 v 0 a 1.5901792,1.4410631 0 0 1 -1.590179,-1.441063 z"
     id="path63"
     inkscape:connector-curvature="0"
     style="fill:url(#linear-gradient-2);stroke-width:0.98297805" />
  <path
     class="cls-5"
     d="m 30.637066,61.104849 a 1.5901792,1.4410631 0 0 1 1.590179,-1.441063 v 0 a 1.5901792,1.4410631 0 0 1 1.59018,1.441063 v 6.550287 a 1.5901792,1.4410631 0 0 1 -1.59018,1.469135 v 0 a 1.5901792,1.4410631 0 0 1 -1.590179,-1.441063 z"
     id="path65"
     inkscape:connector-curvature="0"
     style="fill:url(#linear-gradient-3);stroke-width:0.98297805" />
  <path
     class="cls-6"
     d="m 22.717148,61.104849 a 1.5901792,1.4410631 0 0 1 1.600505,-1.441063 v 0 a 1.5901792,1.4410631 0 0 1 1.590179,1.441063 v 6.550287 a 1.5901792,1.4410631 0 0 1 -1.590179,1.469135 v 0 a 1.5901792,1.4410631 0 0 1 -1.600505,-1.441063 z"
     id="path67"
     inkscape:connector-curvature="0"
     style="fill:url(#linear-gradient-4);stroke-width:0.98297805" />
  <path
     class="cls-7"
     d="m 14.807555,61.104849 a 1.5901792,1.4410631 0 0 1 1.590179,-1.441063 v 0 a 1.6005051,1.4504207 0 0 1 1.600505,1.441063 v 6.550287 a 1.6005051,1.4504207 0 0 1 -1.600505,1.469135 v 0 a 1.5901792,1.4410631 0 0 1 -1.590179,-1.441063 z"
     id="path69"
     inkscape:connector-curvature="0"
     style="fill:url(#linear-gradient-5);stroke-width:0.98297805" />
</svg>
