<?xml version="1.0" encoding="UTF-8" standalone="no"?>
<svg
   xmlns:dc="http://purl.org/dc/elements/1.1/"
   xmlns:cc="http://creativecommons.org/ns#"
   xmlns:rdf="http://www.w3.org/1999/02/22-rdf-syntax-ns#"
   xmlns:svg="http://www.w3.org/2000/svg"
   xmlns="http://www.w3.org/2000/svg"
   xmlns:sodipodi="http://sodipodi.sourceforge.net/DTD/sodipodi-0.dtd"
   xmlns:inkscape="http://www.inkscape.org/namespaces/inkscape"
   viewBox="0 0 785.995 736.686"
   version="1.1"
   id="svg28"
   sodipodi:docname="shapes-logo.svg"
   inkscape:version="0.92.3 (2405546, 2018-03-11)">
  <metadata
     id="metadata34">
    <rdf:RDF>
      <cc:Work
         rdf:about="">
        <dc:format>image/svg+xml</dc:format>
        <dc:type
           rdf:resource="http://purl.org/dc/dcmitype/StillImage" />
      </cc:Work>
    </rdf:RDF>
  </metadata>
  <defs
     id="defs32" />
  <sodipodi:namedview
     pagecolor="#ffffff"
     bordercolor="#666666"
     borderopacity="1"
     objecttolerance="10"
     gridtolerance="10"
     guidetolerance="10"
     inkscape:pageopacity="0"
     inkscape:pageshadow="2"
     inkscape:window-width="1366"
     inkscape:window-height="667"
     id="namedview30"
     showgrid="false"
     inkscape:zoom="0.4530484"
     inkscape:cx="125.94781"
     inkscape:cy="182.5748"
     inkscape:window-x="0"
     inkscape:window-y="27"
     inkscape:window-maximized="1"
     inkscape:current-layer="svg28" />
  <path
     d="M249.795 0l249.718 144.175-124.86 72.087-124.858 72.088z"
     id="path2"
     style="fill:#261d54;fill-opacity:0.47761193"
     fill="#fcee21" />
  <path
     d="M536.35 736.686L286.632 592.51 536.35 448.337z"
     id="path4"
     style="fill:#110e5f;fill-opacity:1"
     fill="#5f2c83" />
  <path
     d="M785.995 430.664L536.277 574.84V286.49z"
     id="path6"
     style="fill:#261d54;fill-opacity:0.47761193"
     fill="#cb202d" />
  <path
     d="M642.633 59.603v288.35l-124.86-72.088-124.858-72.087z"
     id="path8"
     style="fill:#110e5f;fill-opacity:1"
     fill="#ed7124" />
  <path
     d="M0 304.88l249.718-144.176v288.35z"
     id="path10"
     style="fill:#110e5f;fill-opacity:1"
     fill="#35a849" />
  <path
     d="M143.322 675.285v-288.35l124.86 72.087L393.04 531.11l-124.86 72.087z"
     id="path12"
     style="fill:#261d54;fill-opacity:0.47761193"
     fill="#085ba7" />
  <path
     d="M535.633 440.325l-141.96 81.962V358.365l113.99-.493z"
     id="path14"
     style="fill:#261d54;fill-opacity:0.47761193"
     fill="#fcee21" />
  <path
     d="M251.81 285.784l141.96-81.962v163.923z"
     id="path16"
     style="fill:#110e5f;fill-opacity:1"
     fill="#5f2c83" />
  <path
     d="M251.075 451.575V287.653l70.98 40.98 70.98 40.98z"
     id="path18"
     style="fill:#261d54;fill-opacity:0.47761193"
     fill="#cb202d" />
  <path
     d="M393.858 528.85l-141.96-81.96 70.98-40.982 70.98-40.98z"
     id="path20"
     style="fill:#110e5f;fill-opacity:1"
     fill="#ed7124" />
  <path
     d="M535.54 282.964v163.923l-70.982-40.98-70.98-40.98z"
     id="path22"
     style="fill:#110e5f;fill-opacity:1"
     fill="#35a849" />
  <path
     d="M393.31 204.053l142.342 81.725-70.98 40.98-70.98 40.98v-81.96z"
     id="path24"
     style="fill:#261d54;fill-opacity:0.47761193"
     fill="#085ba7" />
  <path
     d="M393.082 148.55L205.67 256.752c.292 72.613.466 144.52.588 216.778l187.684 108.155 187.425-108.212c.29-75.59.706-147.557.38-215.67-62.522-36.105-126.14-73.158-188.666-109.254zm.222 59.923l133.63 77.147-133.24 76.926-133.75-77.076zM257.6 343.626l136.12 78.443 135.655-78.324.332 100.014-135.79 78.4-136.15-78.455z"
     style="line-height:normal;text-indent:0;text-align:start;text-decoration-line:none;text-decoration-style:solid;text-decoration-color:#000000;text-transform:none;isolation:auto;mix-blend-mode:normal"
     overflow="visible"
     id="path26"
     white-space="normal"
     font-family="sans-serif"
     fill="#ffffff"
     solid-color="#000000"
     color="#000000" />
</svg>
