<?xml version="1.0" encoding="UTF-8" standalone="no"?>
<!-- Generator: Adobe Illustrator 19.0.0, SVG Export Plug-In . SVG Version: 6.00 Build 0)  -->

<svg
   xmlns:dc="http://purl.org/dc/elements/1.1/"
   xmlns:cc="http://creativecommons.org/ns#"
   xmlns:rdf="http://www.w3.org/1999/02/22-rdf-syntax-ns#"
   xmlns:svg="http://www.w3.org/2000/svg"
   xmlns="http://www.w3.org/2000/svg"
   xmlns:sodipodi="http://sodipodi.sourceforge.net/DTD/sodipodi-0.dtd"
   xmlns:inkscape="http://www.inkscape.org/namespaces/inkscape"
   version="1.1"
   id="Layer_1"
   x="0px"
   y="0px"
   viewBox="0 0 512 512"
   style="enable-background:new 0 0 512 512;"
   xml:space="preserve"
   sodipodi:docname="slot-machine-casino-svgrepo-com.svg"
   inkscape:version="0.92.3 (2405546, 2018-03-11)"><metadata
   id="metadata55"><rdf:RDF><cc:Work
       rdf:about=""><dc:format>image/svg+xml</dc:format><dc:type
         rdf:resource="http://purl.org/dc/dcmitype/StillImage" /></cc:Work></rdf:RDF></metadata><defs
   id="defs53" /><sodipodi:namedview
   pagecolor="#ffffff"
   bordercolor="#666666"
   borderopacity="1"
   objecttolerance="10"
   gridtolerance="10"
   guidetolerance="10"
   inkscape:pageopacity="0"
   inkscape:pageshadow="2"
   inkscape:window-width="1366"
   inkscape:window-height="676"
   id="namedview51"
   showgrid="false"
   inkscape:zoom="0.4609375"
   inkscape:cx="3.2542373"
   inkscape:cy="256"
   inkscape:window-x="0"
   inkscape:window-y="27"
   inkscape:window-maximized="1"
   inkscape:current-layer="Layer_1" />





<g
   id="g18"
   transform="translate(2.1694902,15.18644)"
   style="fill:#110e5f;fill-opacity:1">
	<path
   style="fill:#110e5f;fill-opacity:1"
   d="M 472,76 H 40 C 17.944,76 0,93.944 0,116 v 96 c 0,22.056 17.944,40 40,40 H 64.179 C 68.39,354.172 152.812,436 256,436 359.188,436 443.61,354.172 447.821,252 H 472 c 22.056,0 40,-17.944 40,-40 V 116 C 512,93.944 494.056,76 472,76 Z M 77.979,172 H 64 c -4.411,0 -8,-3.589 -8,-8 0,-4.411 3.589,-8 8,-8 h 21.32 c -2.696,5.225 -5.144,10.564 -7.341,16 z M 256,420 C 158.953,420 80,341.047 80,244 c 0,-31.016 8.148,-61.337 23.568,-88 h 91.51 C 182.969,168.112 176,183.653 176,200 c 0,37.495 35.888,68 80,68 18.315,0 32,10.559 32,20 0,9.441 -13.685,20 -32,20 -18.315,0 -32,-10.559 -32,-20 0,-13.233 -10.767,-24 -24,-24 -13.233,0 -24,10.767 -24,24 0,15.745 6.484,31.089 18.257,43.207 9.971,10.262 23.388,17.86 38.259,21.755 C 234.809,363.823 244.467,372 256,372 c 11.533,0 21.191,-8.177 23.484,-19.038 14.871,-3.895 28.288,-11.494 38.259,-21.755 C 329.516,319.089 336,303.745 336,288 c 0,-37.495 -35.888,-68 -80,-68 -18.315,0 -32,-10.559 -32,-20 0,-9.441 13.685,-20 32,-20 14.537,0 27.995,6.931 31.309,16.132 0.459,1.267 0.691,2.568 0.691,3.868 0,13.233 10.767,24 24,24 13.233,0 24,-10.767 24,-24 0,-6.854 -1.189,-13.633 -3.536,-20.149 -3.203,-8.889 -8.443,-16.959 -15.323,-23.851 h 91.291 c 15.42,26.663 23.568,56.984 23.568,88 0,97.047 -78.953,176 -176,176 z m 33.99,-264 c 13.29,6.674 23.002,17.011 27.42,29.273 1.719,4.771 2.59,9.726 2.59,14.727 0,4.411 -3.589,8 -8,8 -4.411,0 -8,-3.589 -8,-8 0,-3.162 -0.554,-6.294 -1.642,-9.301 C 296.696,174.979 277.633,164 256,164 c -26.467,0 -48,16.149 -48,36 0,19.851 21.533,36 48,36 35.29,0 64,23.327 64,52 0,23.865 -20.815,45.144 -49.494,50.596 -3.774,0.718 -6.506,4.017 -6.506,7.859 V 348 c 0,4.411 -3.589,8 -8,8 -4.411,0 -8,-3.589 -8,-8 v -1.545 c 0,-3.842 -2.731,-7.142 -6.506,-7.859 C 212.815,333.144 192,311.865 192,288 c 0,-4.411 3.589,-8 8,-8 4.411,0 8,3.589 8,8 0,19.851 21.533,36 48,36 26.467,0 48,-16.149 48,-36 0,-19.851 -21.533,-36 -48,-36 -35.29,0 -64,-23.327 -64,-52 0,-17.771 11.485,-34.491 30.092,-44 z m 136.69,0 H 448 c 4.411,0 8,3.589 8,8 0,4.411 -3.589,8 -8,8 h -13.979 c -2.197,-5.436 -4.645,-10.775 -7.341,-16 z M 496,212 c 0,13.234 -10.766,24 -24,24 H 447.828 C 447.15,219.64 444.4,203.517 439.679,188 H 448 c 13.234,0 24,-10.766 24,-24 0,-13.234 -10.766,-24 -24,-24 H 64 c -13.234,0 -24,10.766 -24,24 0,13.234 10.766,24 24,24 h 8.321 C 67.6,203.517 64.85,219.64 64.172,236 H 40 C 26.766,236 16,225.234 16,212 V 116 C 16,102.766 26.766,92 40,92 h 432 c 13.234,0 24,10.766 24,24 z"
   id="path12"
   inkscape:connector-curvature="0" />
	<path
   style="fill:#110e5f;fill-opacity:1"
   d="M 309.055,377.914 C 292.177,384.606 274.327,388 256,388 176.598,388 112,323.402 112,244 c 0,-21.182 4.49,-41.581 13.346,-60.63 1.863,-4.006 0.125,-8.764 -3.882,-10.627 -4.008,-1.864 -8.764,-0.125 -10.627,3.882 C 100.992,197.802 96,220.471 96,244 c 0,88.224 71.776,160 160,160 20.355,0 40.189,-3.772 58.953,-11.213 4.107,-1.628 6.117,-6.278 4.488,-10.385 -1.629,-4.109 -6.28,-6.12 -10.386,-4.488 z"
   id="path14"
   inkscape:connector-curvature="0" />
	<path
   style="fill:#110e5f;fill-opacity:1"
   d="m 390.526,172.724 c -4.006,1.863 -5.744,6.621 -3.88,10.627 8.861,19.055 13.354,39.46 13.354,60.649 0,46.526 -22.667,90.425 -60.636,117.431 -3.601,2.561 -4.443,7.556 -1.882,11.156 1.561,2.194 4.024,3.364 6.526,3.364 1.604,0 3.224,-0.481 4.63,-1.481 C 390.818,344.468 416,295.694 416,244 c 0,-23.537 -4.995,-46.212 -14.847,-67.396 -1.862,-4.006 -6.62,-5.743 -10.627,-3.88 z"
   id="path16"
   inkscape:connector-curvature="0" />
</g>
<g
   id="g20">
</g>
<g
   id="g22">
</g>
<g
   id="g24">
</g>
<g
   id="g26">
</g>
<g
   id="g28">
</g>
<g
   id="g30">
</g>
<g
   id="g32">
</g>
<g
   id="g34">
</g>
<g
   id="g36">
</g>
<g
   id="g38">
</g>
<g
   id="g40">
</g>
<g
   id="g42">
</g>
<g
   id="g44">
</g>
<g
   id="g46">
</g>
<g
   id="g48">
</g>
</svg>