<?xml version="1.0" encoding="UTF-8" standalone="no"?>
<!-- Created with Inkscape (http://www.inkscape.org/) -->

<svg
   xmlns:dc="http://purl.org/dc/elements/1.1/"
   xmlns:cc="http://creativecommons.org/ns#"
   xmlns:rdf="http://www.w3.org/1999/02/22-rdf-syntax-ns#"
   xmlns:svg="http://www.w3.org/2000/svg"
   xmlns="http://www.w3.org/2000/svg"
   xmlns:sodipodi="http://sodipodi.sourceforge.net/DTD/sodipodi-0.dtd"
   xmlns:inkscape="http://www.inkscape.org/namespaces/inkscape"
   width="179.53392mm"
   height="249.50494mm"
   viewBox="0 0 179.53392 249.50494"
   version="1.1"
   id="svg8"
   inkscape:export-filename="H:\Continuum the tex fest\resources\webiesta\webiesta_logo.png"
   inkscape:export-xdpi="241.94142"
   inkscape:export-ydpi="241.94142"
   inkscape:version="0.92.4 (f8dce91, 2019-08-02)"
   sodipodi:docname="webiesta.svg">
  <defs
     id="defs2">
    <inkscape:path-effect
       effect="skeletal"
       id="path-effect46"
       is_visible="true"
       pattern="M 0,5 C 0,2.24 2.24,0 5,0 7.76,0 10,2.24 10,5 10,7.76 7.76,10 5,10 2.24,10 0,7.76 0,5 Z"
       copytype="single_stretched"
       prop_scale="0.26458333"
       scale_y_rel="false"
       spacing="0"
       normal_offset="0"
       tang_offset="0"
       prop_units="false"
       vertical_pattern="false"
       fuse_tolerance="0" />
  </defs>
  <sodipodi:namedview
     id="base"
     pagecolor="#ffffff"
     bordercolor="#666666"
     borderopacity="1.0"
     inkscape:pageopacity="0.0"
     inkscape:pageshadow="2"
     inkscape:zoom="0.49497475"
     inkscape:cx="139.8893"
     inkscape:cy="484.60956"
     inkscape:document-units="mm"
     inkscape:current-layer="layer3"
     showgrid="false"
     inkscape:window-width="1600"
     inkscape:window-height="796"
     inkscape:window-x="0"
     inkscape:window-y="27"
     inkscape:window-maximized="1"
     fit-margin-top="0"
     fit-margin-left="0"
     fit-margin-right="0"
     fit-margin-bottom="0" />
  <metadata
     id="metadata5">
    <rdf:RDF>
      <cc:Work
         rdf:about="">
        <dc:format>image/svg+xml</dc:format>
        <dc:type
           rdf:resource="http://purl.org/dc/dcmitype/StillImage" />
        <dc:title></dc:title>
      </cc:Work>
    </rdf:RDF>
  </metadata>
  <g
     inkscape:groupmode="layer"
     id="layer2"
     inkscape:label="laptop"
     style="display:inline"
     transform="translate(-3.9531261,-4.0637572)" />
  <g
     inkscape:groupmode="layer"
     id="layer4"
     inkscape:label="screen"
     transform="translate(-3.9531261,-4.0637572)" />
  <g
     inkscape:groupmode="layer"
     id="layer3"
     inkscape:label="boy"
     style="display:inline"
     transform="translate(-3.9531261,-4.0637572)">
    <g
       id="g78"
       style="fill:#110e5f;fill-opacity:1;stroke:#110e5f;stroke-width:1.97423625;stroke-miterlimit:4;stroke-dasharray:none;stroke-opacity:1"
       transform="matrix(0.84095533,0,0,1,5.5416467,0)">
      <g
         id="g61"
         style="display:inline;fill:#110e5f;fill-opacity:1;stroke:#110e5f;stroke-width:1.97423625;stroke-miterlimit:4;stroke-dasharray:none;stroke-opacity:1">
        <path
           style="fill:#110e5f;fill-opacity:1;stroke:#110e5f;stroke-width:1.97423625;stroke-linecap:butt;stroke-linejoin:miter;stroke-miterlimit:4;stroke-dasharray:none;stroke-opacity:1"
           d="m 23.056547,245.78422 c 0,0 -5.669642,4.53572 0,7.55953 L 183.7478,253.5687 c 0,0 7.08264,-3.20723 0,-8.15172 z"
           id="path22"
           inkscape:connector-curvature="0" />
        <ellipse
           style="fill:#110e5f;fill-opacity:1;stroke:#110e5f;stroke-width:1.97423625;stroke-miterlimit:4;stroke-dasharray:none;stroke-opacity:1"
           id="path30"
           cx="103.70058"
           cy="188.88947"
           rx="5.4790254"
           ry="5.4122081" />
      </g>
      <g
         id="g57"
         style="fill:#110e5f;fill-opacity:1;stroke:#110e5f;stroke-width:1.97423625;stroke-miterlimit:4;stroke-dasharray:none;stroke-opacity:1">
        <g
           id="g53"
           style="fill:#110e5f;fill-opacity:1;stroke:#110e5f;stroke-width:1.97423625;stroke-miterlimit:4;stroke-dasharray:none;stroke-opacity:1">
          <path
             inkscape:original-d="m 31.136899,242.47702 144.860081,-0.26727 c 0,0 4.20317,-0.67776 6.1403,-4.97724 l 20.01871,-96.15087 c 0,0 0.91172,-6.28067 -7.59275,-7.32011 l -181.600668,-0.0632 c 0,0 -6.1471991,-0.60136 -7.884451,9.75533 l 19.868308,94.20408 c 0,0 2.031622,5.33891 9.35491,4.91369 7.323289,-0.42522 11.717262,-0.0472 11.717262,-0.0472 l 33.226814,0.0196"
             inkscape:path-effect="#path-effect46"
             inkscape:connector-curvature="0"
             id="path44"
             d="m 31.136899,242.47702 c -8.84e-4,-0.47891 57.916405,-0.99178 144.662231,-1.35474 0.004,-0.002 2.08258,-0.81977 2.08633,-0.82125 1e-5,0 1e-5,0 2e-5,0 1.38839,-0.73586 2.53622,-1.96601 3.1678,-3.42089 -0.20287,0.9871 20.02015,-96.98153 19.81729,-95.99443 5.5e-4,-0.003 9.7e-4,-0.007 0.001,-0.01 0.001,-0.009 0.002,-0.0175 0.003,-0.0265 0.003,-0.0335 0.003,-0.0699 0.004,-0.10893 0.009,-0.18164 0.003,-0.37091 -0.0123,-0.56598 0,0 0,-2e-5 0,-2e-5 -0.0521,-0.62659 -0.21757,-1.24534 -0.49312,-1.79828 0,0 -1e-5,-2e-5 -1e-5,-2e-5 -0.373,-0.77106 -1.00942,-1.44485 -1.76376,-1.94714 -1.12913,-0.78489 -2.59389,-1.15623 -4.12527,-1.36199 0.26241,-2e-5 -42.01693,-0.01 -42.27933,-0.01 -50.03595,-0.0267 -97.392316,-0.10382 -139.073484,-0.21533 -5.66e-4,1.2e-4 -2.984739,0.89958 -2.985171,0.89971 l 0,0 c -2.4109976,1.38934 -3.3829634,4.63593 -3.9424291,7.68883 l 0,0 c 7.7098621,37.03373 14.3494161,69.14302 19.4224621,93.92296 l 0,0 c 0.0018,0.002 1.808141,2.43316 1.809872,2.43548 l 0,0 c 1.800033,1.66857 4.442563,2.21743 6.825833,2.09304 l 0,0 c 3.020725,-0.15427 5.879843,-0.19768 8.634722,-0.11997 l 0,0 c 0.790636,0.0223 1.566904,0.0545 2.336549,0.10269 l 0,0 c 0.204907,0.0128 0.409493,0.0268 0.614348,0.0429 4e-6,0 7e-6,0 1.1e-5,0 -2e-6,0 -2e-6,0 -2e-6,0 0.04563,0.004 0.09168,0.008 0.138147,0.0123 4e-6,0 8e-6,0 1.3e-5,0 0.0189,0.002 0.03796,0.003 0.05683,0.005 21.221136,0.19191 33.203654,0.40297 33.203526,0.6191 -1.27e-4,0.21614 -11.984238,0.41304 -33.250309,0.57988 -0.0191,-0.001 -0.0382,-0.003 -0.05713,-0.004 -4e-6,0 -9e-6,0 -1.3e-5,0 -0.05794,-0.004 -0.116445,-0.007 -0.175502,-0.0108 0,0 0,0 0,0 -5e-6,0 -8e-6,0 -1.2e-5,0 -0.196896,-0.0121 -0.395266,-0.0223 -0.5958,-0.0316 l 0,0 c -0.753256,-0.0346 -1.515746,-0.0536 -2.296027,-0.0631 l 0,0 c -2.71901,-0.0332 -5.541082,0.0524 -8.529248,0.24708 l 0,0 c -2.68417,0.16985 -5.709739,-0.48275 -7.996505,-2.47925 l 0,0 c 0.0019,0.003 -2.079458,-2.82207 -2.077542,-2.81947 l -5.3e-5,-1.4e-4 C 18.880879,213.14967 11.937702,180.85725 3.9531261,143.4771 l 10e-8,0 c 0.5417646,-3.51224 1.918548,-7.45978 5.2164816,-9.81539 l 0,0 c -4.3e-5,2e-5 3.6247282,-1.10676 3.6246852,-1.10674 41.765099,-0.0825 89.259037,-0.12657 139.445247,-0.11839 0.15754,3e-5 42.24587,0.0195 42.40341,0.0195 1.83054,0.20515 3.72304,0.72065 5.40555,1.79096 1.11277,0.72969 2.04872,1.74599 2.66328,2.97273 0,0 1e-5,3e-5 1e-5,3e-5 0.42536,0.86496 0.67665,1.79934 0.75136,2.74512 0,0 0,3e-5 0,3e-5 0.0237,0.29089 0.0306,0.58976 0.0169,0.89476 -0.006,0.098 -0.0144,0.19852 -0.0251,0.30149 -0.003,0.0278 -0.006,0.0558 -0.009,0.084 -0.001,0.0106 -0.003,0.0215 -0.004,0.0322 -0.226,1.08073 -19.99416,95.22684 -20.22015,96.30744 -0.93307,2.01788 -2.49298,3.69313 -4.39487,4.76426 0,0 -2e-5,1e-5 -2e-5,1e-5 0.006,-0.002 -2.63725,0.95016 -2.63137,0.94804 -87.102254,-0.0423 -145.057237,-0.34117 -145.058121,-0.82017 z"
             style="fill:#110e5f;fill-opacity:1;stroke:#110e5f;stroke-width:1.97423625;stroke-linecap:butt;stroke-linejoin:miter;stroke-miterlimit:4;stroke-dasharray:none;stroke-opacity:1" />
        </g>
      </g>
      <g
         id="g50"
         style="fill:#110e5f;fill-opacity:1;stroke:#110e5f;stroke-width:1.97423625;stroke-miterlimit:4;stroke-dasharray:none;stroke-opacity:1">
        <path
           style="fill:#110e5f;fill-opacity:1;stroke:#110e5f;stroke-width:1.97423625;stroke-linecap:butt;stroke-linejoin:miter;stroke-miterlimit:4;stroke-dasharray:none;stroke-opacity:1"
           d="m 30.669177,132.96333 c 0,0 6.750465,-31.28253 28.862072,-31.6605 l 16.819942,-1.417414 c 0,0 12.382292,20.048524 20.266743,26.195724 l 3.474506,-13.22984 -2.539062,-2.53907 -0.668174,-5.07812 12.962576,-0.13363 -0.70159,5.04471 -2.43883,2.80633 3.60814,13.09621 c 0,0 20.36977,-22.66603 20.55876,-26.256808 l 17.99487,1.500968 c 0,0 20.27522,-0.0836 27.26777,31.47746 z"
           id="path33"
           inkscape:connector-curvature="0" />
        <path
           style="fill:#110e5f;fill-opacity:1;stroke:#110e5f;stroke-width:1.97423625;stroke-linecap:butt;stroke-linejoin:miter;stroke-miterlimit:4;stroke-dasharray:none;stroke-opacity:1"
           d="m 66.149209,45.098469 c 0,0 -3.741775,-40.3576977 36.749561,-41.0258714 40.49133,-0.668174 37.685,36.7495594 36.88319,41.0258714 0,0 4.94449,-0.133634 2.80633,11.091686 -2.13815,11.225321 -4.67721,11.626225 -5.87993,11.626225 0,0 -11.35895,33.8096 -34.34413,32.47325 C 79.37905,98.95328 69.222808,68.350919 69.222808,68.350919 c 0,0 -2.80633,0 -3.942226,-4.009043 0,0 -2.53906,-4.610399 -2.405426,-10.757599 0,0 -1.603617,-9.68852 6.080382,-8.753077 l 0.334087,6.013565 0.334087,1.002261 c 0,0 -1.870887,13.831198 5.345391,14.365737 0,0 11.162221,27.766775 26.045027,27.294305 0,0 19.37129,2.598586 29.67114,-26.600074 l 0.19328,-1.328997 c 0,0 4.15344,1.612479 5.28737,-6.419515 1.13393,-8.031994 -0.85044,-9.260417 -0.85044,-9.260417 l -2.17337,0.283482 c 0,0 -1.98437,-10.961309 -7.37053,-14.646577 0,0 -1.03944,2.173363 0.37797,4.063244 0,0 -5.57515,-5.480655 -14.74107,-3.96875 0,0 -10.20535,4.157738 -17.481397,0.94494 0,0 -5.669642,-0.377976 -4.630208,-1.795387 0,0 -14.646577,-1.133928 -16.252976,14.835566 0,0 -4.913691,-0.141741 -4.252232,8.220982 z"
           id="path41"
           inkscape:connector-curvature="0"
           sodipodi:nodetypes="cscscscccccccc" />
      </g>
    </g>
  </g>
</svg>
